<svg xmlns="http://www.w3.org/2000/svg" xmlns:xlink="http://www.w3.org/1999/xlink" width="34.683" height="39.901" viewBox="0 0 34.683 39.901"><defs><linearGradient id="a" x1="-0.017" x2="1.019" y2="1" gradientUnits="objectBoundingBox"><stop offset="0" stop-color="#fe4077"/><stop offset="1" stop-color="#fb6690"/></linearGradient></defs><g transform="translate(2.481 2.5)"><path d="M489.984,785.114a17.606,17.606,0,0,1-4.217,6.57,22.072,22.072,0,0,1-8.242,4.883,2.531,2.531,0,0,1-.8.141h-.03a2.537,2.537,0,0,1-.491-.049,2.611,2.611,0,0,1-.338-.092,22.076,22.076,0,0,1-8.251-4.88,17.581,17.581,0,0,1-4.216-6.568c-1.7-4.623-1.607-9.715-1.528-13.807v-.063c.016-.338.026-.693.032-1.085a3.7,3.7,0,0,1,3.483-3.624,14.357,14.357,0,0,0,9.77-4.118l.023-.021a2.235,2.235,0,0,1,3.035,0l.023.021a14.358,14.358,0,0,0,9.77,4.118,3.7,3.7,0,0,1,3.483,3.624c.005.395.015.749.031,1.085v.027C491.6,775.376,491.693,780.478,489.984,785.114Z" transform="translate(-461.833 -761.808)" fill="none" stroke="#fff" stroke-miterlimit="10" stroke-width="5"/><path d="M489.984,785.114a17.606,17.606,0,0,1-4.217,6.57,22.072,22.072,0,0,1-8.242,4.883,2.531,2.531,0,0,1-.8.141h-.03a2.537,2.537,0,0,1-.491-.049,2.611,2.611,0,0,1-.338-.092,22.076,22.076,0,0,1-8.251-4.88,17.581,17.581,0,0,1-4.216-6.568c-1.7-4.623-1.607-9.715-1.528-13.807v-.063c.016-.338.026-.693.032-1.085a3.7,3.7,0,0,1,3.483-3.624,14.357,14.357,0,0,0,9.77-4.118l.023-.021a2.235,2.235,0,0,1,3.035,0l.023.021a14.358,14.358,0,0,0,9.77,4.118,3.7,3.7,0,0,1,3.483,3.624c.005.395.015.749.031,1.085v.027C491.6,775.376,491.693,780.478,489.984,785.114Z" transform="translate(-461.833 -761.808)" fill="url(#a)"/><path d="M504.183,785.114a17.606,17.606,0,0,1-4.217,6.57,22.072,22.072,0,0,1-8.242,4.883,2.532,2.532,0,0,1-.8.141v-34.9a2.239,2.239,0,0,1,1.487.594l.023.022a14.358,14.358,0,0,0,9.77,4.118,3.7,3.7,0,0,1,3.483,3.624c.005.395.015.749.031,1.085v.027C505.8,775.376,505.893,780.478,504.183,785.114Z" transform="translate(-476.032 -761.808)" fill="#fff" opacity="0.197"/><path d="M491.338,786.145a10.241,10.241,0,0,1-10.193,10.229h-.036a10.229,10.229,0,0,1,0-20.458h.036A10.242,10.242,0,0,1,491.338,786.145Z" transform="translate(-466.249 -768.694)" fill="#fff"/><path d="M501.127,786.145a10.242,10.242,0,0,1-10.193,10.229V775.916A10.242,10.242,0,0,1,501.127,786.145Z" transform="translate(-476.038 -768.694)" fill="#f0f4f5"/><g transform="translate(-42 -263.621)"><rect width="2" height="8" rx="1" transform="translate(56 278)" fill="#fe4077"/><circle cx="1" cy="1" r="1" transform="translate(56 275)" fill="#fe4077"/></g></g></svg>