<svg xmlns="http://www.w3.org/2000/svg" width="24.001" height="24" viewBox="0 0 24.001 24"><g transform="translate(0 4.286)"><path d="M17.143,85.333H2.571A2.571,2.571,0,0,0,0,87.9v14.571a2.571,2.571,0,0,0,2.571,2.571H17.143a2.571,2.571,0,0,0,2.571-2.571V87.9A2.571,2.571,0,0,0,17.143,85.333ZM18,102.476a.857.857,0,0,1-.857.857H2.571a.857.857,0,0,1-.857-.857V87.9a.857.857,0,0,1,.857-.857H17.143A.857.857,0,0,1,18,87.9Z" transform="translate(0 -85.333)" fill="#9da2a6"/></g><g transform="translate(3.429)"><path d="M86.267,0H70.838a2.571,2.571,0,0,0-2.571,2.571.857.857,0,1,0,1.714,0,.857.857,0,0,1,.857-.857H86.267a.857.857,0,0,1,.857.857V18a.857.857,0,0,1-.857.857.857.857,0,0,0,0,1.714A2.571,2.571,0,0,0,88.838,18V2.571A2.571,2.571,0,0,0,86.267,0Z" transform="translate(-68.267)" fill="#9da2a6"/></g></svg>