<svg xmlns="http://www.w3.org/2000/svg" width="20" height="20" viewBox="0 0 20 20"><rect width="20" height="20" transform="translate(20) rotate(90)" fill="none"/><path d="M6.535,8.981.382,2.293A1.3,1.3,0,0,1,0,1.338,1.3,1.3,0,0,1,.382.382,1.4,1.4,0,0,1,1.357,0a1.273,1.273,0,0,1,.936.382l7.49,7.643A1.4,1.4,0,0,1,10.166,9a1.273,1.273,0,0,1-.382.936L2.293,17.58a1.217,1.217,0,0,1-.936.42,1.337,1.337,0,0,1-.975-.42A1.273,1.273,0,0,1,0,16.643a1.4,1.4,0,0,1,.382-.975Z" transform="translate(19 5) rotate(90)" fill="#ff8bac"/></svg>