<svg xmlns="http://www.w3.org/2000/svg" width="24" height="24" viewBox="0 0 24 24"><path d="M11,0A10.328,10.328,0,0,0,7.842.516,11.5,11.5,0,0,0,4.727,2.063,12.739,12.739,0,0,0,2.02,4.641,12.95,12.95,0,0,0,0,8.25a12.667,12.667,0,0,0,1.912,2.814,12.3,12.3,0,0,0,2.557,2.17,12.189,12.189,0,0,0,3.072,1.4,12.354,12.354,0,0,0,6.918,0,12.189,12.189,0,0,0,3.072-1.4,12.3,12.3,0,0,0,2.557-2.17A12.667,12.667,0,0,0,22,8.25a13.275,13.275,0,0,0-2-3.609,13.178,13.178,0,0,0-2.729-2.578A11.591,11.591,0,0,0,14.18.516,10.531,10.531,0,0,0,11,0Zm0,13.75a8.926,8.926,0,0,1-2.922-.473,9.664,9.664,0,0,1-2.492-1.246A7.934,7.934,0,0,1,3.76,10.27,5.576,5.576,0,0,1,2.75,8.25a5.748,5.748,0,0,1,.988-2.02A8.344,8.344,0,0,1,5.586,4.469,9.754,9.754,0,0,1,8.057,3.223,9.118,9.118,0,0,1,11,2.75a8.926,8.926,0,0,1,2.922.473,9.664,9.664,0,0,1,2.492,1.246A7.934,7.934,0,0,1,18.24,6.23a5.576,5.576,0,0,1,1.01,2.02,5.748,5.748,0,0,1-.988,2.02,8.344,8.344,0,0,1-1.848,1.762,9.754,9.754,0,0,1-2.471,1.246A9.118,9.118,0,0,1,11,13.75Zm0-9.625a3.359,3.359,0,0,0-.612.054q-.29.054-.591.14a1.982,1.982,0,0,1,.87.741A2.076,2.076,0,0,1,10.4,7.648a2.076,2.076,0,0,1-2.589.269,1.982,1.982,0,0,1-.741-.87,4.9,4.9,0,0,0-.14.58,3.538,3.538,0,0,0-.054.623,3.988,3.988,0,0,0,1.2,2.911A3.96,3.96,0,0,0,11,12.375,4.126,4.126,0,0,0,15.125,8.25a3.988,3.988,0,0,0-1.2-2.911A3.96,3.96,0,0,0,11,4.125Z" transform="translate(1 4)" fill="#8e8e93"/><rect width="24" height="24" fill="none"/><g transform="matrix(0.839, -0.545, 0.545, 0.839, 4.523, 2.511)" fill="#8e8e93" stroke="#fff" stroke-width="1"><rect width="3" height="24" stroke="none"/><rect x="0.5" y="0.5" width="2" height="23" fill="none"/></g></svg>