<svg xmlns="http://www.w3.org/2000/svg" width="17.734" height="17.734" viewBox="0 0 17.734 17.734"><path d="M8.867,0A8.63,8.63,0,0,0,5.419.7,8.857,8.857,0,0,0,.7,5.419,8.63,8.63,0,0,0,0,8.867a8.63,8.63,0,0,0,.7,3.448,8.857,8.857,0,0,0,4.721,4.721,8.63,8.63,0,0,0,3.448.7,8.63,8.63,0,0,0,3.448-.7,8.857,8.857,0,0,0,4.721-4.721,8.63,8.63,0,0,0,.7-3.448,8.63,8.63,0,0,0-.7-3.448A8.857,8.857,0,0,0,12.315.7,8.63,8.63,0,0,0,8.867,0Zm0,15.764a6.674,6.674,0,0,1-2.689-.544,6.952,6.952,0,0,1-3.664-3.664A6.674,6.674,0,0,1,1.97,8.867a6.674,6.674,0,0,1,.544-2.689A6.952,6.952,0,0,1,6.178,2.514,6.674,6.674,0,0,1,8.867,1.97a6.674,6.674,0,0,1,2.689.544A6.952,6.952,0,0,1,15.22,6.178a6.674,6.674,0,0,1,.544,2.689,6.674,6.674,0,0,1-.544,2.689,6.952,6.952,0,0,1-3.664,3.664A6.674,6.674,0,0,1,8.867,15.764Zm0-11.166a.981.981,0,0,0-.985.985V8.908a.985.985,0,1,0,1.97,0V5.583A.981.981,0,0,0,8.867,4.6Zm0,6.568a.981.981,0,1,0,.7.287A.95.95,0,0,0,8.867,11.166Z" fill="#ee1e45"/></svg>