<svg xmlns="http://www.w3.org/2000/svg" xmlns:xlink="http://www.w3.org/1999/xlink" width="114.01" height="79.009" viewBox="0 0 114.01 79.009"><defs><linearGradient id="a" x1="0.012" y1="0.027" x2="0.982" y2="0.977" gradientUnits="objectBoundingBox"><stop offset="0" stop-color="#5eb8f0"/><stop offset="1" stop-color="#a4d5fa"/></linearGradient><linearGradient id="b" x1="-0.017" x2="1.019" y2="1" gradientUnits="objectBoundingBox"><stop offset="0" stop-color="#fe4077"/><stop offset="1" stop-color="#fb6690"/></linearGradient></defs><g transform="translate(1 1)"><g transform="translate(-128.045 -456.491)"><rect width="82.386" height="46.06" rx="4.426" transform="translate(144.518 473.564)" fill="url(#a)"/><g transform="translate(155.188 489.332)"><g transform="translate(0.184 3.074)"><rect width="4.165" height="0.396" fill="#fff"/></g><g transform="translate(7.115 3.074)"><rect width="4" height="0.396" fill="#fff"/></g><g transform="translate(0 0.007)"><path d="M409.823,798.406h-9.016c-.625,0-1.133-.75-1.133-1.672V790.4c0-.922.508-1.672,1.133-1.672h9.016c.625,0,1.133.75,1.133,1.672v6.329C410.955,797.656,410.447,798.406,409.823,798.406Zm-9.016-9.089c-.406,0-.737.488-.737,1.088v6.329c0,.6.331,1.088.737,1.088h9.016c.406,0,.737-.488.737-1.088V790.4c0-.6-.331-1.088-.737-1.088Z" transform="translate(-399.674 -788.733)" fill="#fff"/></g><g transform="translate(4.15)"><path d="M406,798.4h-.01c-.819,0-1.485-.983-1.485-2.191v-5.3c0-1.208.666-2.191,1.485-2.191s1.5.983,1.5,2.191v5.3C407.484,797.422,406.818,798.4,406,798.4Zm0-9.1c-.611,0-1.1.722-1.1,1.608v5.3c0,.886.488,1.608,1.089,1.608H406c.6,0,1.089-.721,1.089-1.608v-5.3C407.088,790.03,406.6,789.308,406,789.308Z" transform="translate(-404.504 -788.725)" fill="#fff"/></g><g transform="translate(0.184 5.56)"><rect width="4.165" height="0.396" fill="#fff"/></g><g transform="translate(7.115 5.56)"><rect width="4" height="0.396" fill="#fff"/></g></g><path d="M10,0h0A10,10,0,0,1,20,10V24a0,0,0,0,1,0,0H0a0,0,0,0,1,0,0V10A10,10,0,0,1,10,0Z" transform="translate(203 487)" fill="#fff" opacity="0.5"/><path d="M4.5,0h0A4.5,4.5,0,0,1,9,4.5V10a0,0,0,0,1,0,0H0a0,0,0,0,1,0,0V4.5A4.5,4.5,0,0,1,4.5,0Z" transform="translate(192 487)" fill="#fff" opacity="0.5"/><line x2="28" transform="translate(151.5 506.5)" fill="none" stroke="#fff" stroke-linecap="round" stroke-width="1"/><line x2="21" transform="translate(151.5 510.5)" fill="none" stroke="#fff" stroke-linecap="round" stroke-width="1"/><line x2="21" transform="translate(151.5 512.5)" fill="none" stroke="#fff" stroke-linecap="round" stroke-width="1"/><line x2="21" transform="translate(151.5 514.5)" fill="none" stroke="#fff" stroke-linecap="round" stroke-width="1"/><text transform="translate(152 486)" fill="#fff" font-size="4" font-family="Lato-Regular, Lato"><tspan x="0" y="0">xxxxxx-xx-xxxx</tspan></text><g transform="translate(129.545 464.112)"><path d="M489.984,785.114a17.606,17.606,0,0,1-4.217,6.57,22.072,22.072,0,0,1-8.242,4.883,2.531,2.531,0,0,1-.8.141h-.03a2.537,2.537,0,0,1-.491-.049,2.611,2.611,0,0,1-.338-.092,22.076,22.076,0,0,1-8.251-4.88,17.581,17.581,0,0,1-4.216-6.568c-1.7-4.623-1.607-9.715-1.528-13.807v-.063c.016-.338.026-.693.032-1.085a3.7,3.7,0,0,1,3.483-3.624,14.357,14.357,0,0,0,9.77-4.118l.023-.021a2.235,2.235,0,0,1,3.035,0l.023.021a14.358,14.358,0,0,0,9.77,4.118,3.7,3.7,0,0,1,3.483,3.624c.005.395.015.749.031,1.085v.027C491.6,775.376,491.693,780.478,489.984,785.114Z" transform="translate(-461.833 -761.808)" fill="none" stroke="#fff" stroke-miterlimit="10" stroke-width="5"/><g transform="translate(0)"><path d="M489.984,785.114a17.606,17.606,0,0,1-4.217,6.57,22.072,22.072,0,0,1-8.242,4.883,2.531,2.531,0,0,1-.8.141h-.03a2.537,2.537,0,0,1-.491-.049,2.611,2.611,0,0,1-.338-.092,22.076,22.076,0,0,1-8.251-4.88,17.581,17.581,0,0,1-4.216-6.568c-1.7-4.623-1.607-9.715-1.528-13.807v-.063c.016-.338.026-.693.032-1.085a3.7,3.7,0,0,1,3.483-3.624,14.357,14.357,0,0,0,9.77-4.118l.023-.021a2.235,2.235,0,0,1,3.035,0l.023.021a14.358,14.358,0,0,0,9.77,4.118,3.7,3.7,0,0,1,3.483,3.624c.005.395.015.749.031,1.085v.027C491.6,775.376,491.693,780.478,489.984,785.114Z" transform="translate(-461.833 -761.808)" fill="url(#b)"/><path d="M504.183,785.114a17.606,17.606,0,0,1-4.217,6.57,22.072,22.072,0,0,1-8.242,4.883,2.532,2.532,0,0,1-.8.141v-34.9a2.239,2.239,0,0,1,1.487.594l.023.022a14.358,14.358,0,0,0,9.77,4.118,3.7,3.7,0,0,1,3.483,3.624c.005.395.015.749.031,1.085v.027C505.8,775.376,505.893,780.478,504.183,785.114Z" transform="translate(-476.032 -761.808)" fill="#fff" opacity="0.197"/><path d="M491.338,786.145a10.241,10.241,0,0,1-10.193,10.229h-.036a10.229,10.229,0,0,1,0-20.458h.036A10.242,10.242,0,0,1,491.338,786.145Z" transform="translate(-466.249 -768.694)" fill="#fff"/><path d="M501.127,786.145a10.242,10.242,0,0,1-10.193,10.229V775.916A10.242,10.242,0,0,1,501.127,786.145Z" transform="translate(-476.038 -768.694)" fill="#f0f4f5"/><g transform="translate(10.776 11.703)"><path d="M489.842,796.493H484.1a1.212,1.212,0,0,1-1.212-1.212v-3.8a1.212,1.212,0,0,1,1.212-1.212h5.745a1.212,1.212,0,0,1,1.212,1.212v3.8A1.212,1.212,0,0,1,489.842,796.493Z" transform="translate(-482.885 -786.38)" fill="#f7cf75"/><path d="M493.737,790.27h-2.873v6.223h2.873a1.212,1.212,0,0,0,1.212-1.212v-3.8A1.212,1.212,0,0,0,493.737,790.27Z" transform="translate(-486.78 -786.38)" fill="#edb840"/><path d="M490.308,795.644h0a.585.585,0,0,1-.584-.583v-1.167a.585.585,0,0,1,.584-.583h0a.585.585,0,0,1,.584.583v1.167A.585.585,0,0,1,490.308,795.644Z" transform="translate(-486.223 -787.864)" fill="#4c4c4f"/><path d="M485.21,786.561h.734V785.3a2.162,2.162,0,0,1,4.278,0v1.264h.734l.044,0V785.3a2.933,2.933,0,0,0-5.834,0v1.266Z" transform="translate(-483.998 -782.671)" fill="#546a79"/></g></g></g></g><g transform="translate(-248.5 -237.67)"><line y2="6.18" transform="translate(294.59 242.5)" fill="none" stroke="#ff8bac" stroke-linecap="round" stroke-width="2"/><line x1="6.18" transform="translate(291.5 245.59)" fill="none" stroke="#ff8bac" stroke-linecap="round" stroke-width="2"/></g><g transform="translate(-215.5 -174.67)"><line y2="6.18" transform="translate(294.59 242.5)" fill="none" stroke="#ff8bac" stroke-linecap="round" stroke-width="2"/><line x1="6.18" transform="translate(291.5 245.59)" fill="none" stroke="#ff8bac" stroke-linecap="round" stroke-width="2"/></g><g transform="translate(-194.5 -236.67)"><line y2="6.18" transform="translate(294.59 242.5)" fill="none" stroke="#ff8bac" stroke-linecap="round" stroke-width="2"/><line x1="6.18" transform="translate(291.5 245.59)" fill="none" stroke="#ff8bac" stroke-linecap="round" stroke-width="2"/></g><g transform="translate(-291.5 -192.67)"><line y2="6.18" transform="translate(294.59 242.5)" fill="none" stroke="#fff" stroke-linecap="round" stroke-width="2"/><line x1="6.18" transform="translate(291.5 245.59)" fill="none" stroke="#fff" stroke-linecap="round" stroke-width="2"/></g><g transform="translate(-245.5 -171.67)"><line y2="6.18" transform="translate(294.59 242.5)" fill="none" stroke="#fff" stroke-linecap="round" stroke-width="2"/><line x1="6.18" transform="translate(291.5 245.59)" fill="none" stroke="#fff" stroke-linecap="round" stroke-width="2"/></g><g transform="translate(-224.5 -242.5)"><line y2="9.009" transform="translate(296.005 242.5)" fill="none" stroke="#fff" stroke-linecap="round" stroke-width="2"/><line x1="9.009" transform="translate(291.5 247.005)" fill="none" stroke="#fff" stroke-linecap="round" stroke-width="2"/></g><g transform="translate(-188.5 -182.5)"><line y2="9.009" transform="translate(296.005 242.5)" fill="none" stroke="#fff" stroke-linecap="round" stroke-width="2"/><line x1="9.009" transform="translate(291.5 247.005)" fill="none" stroke="#fff" stroke-linecap="round" stroke-width="2"/></g><g transform="translate(-285.5 -174.5)"><line y2="9.009" transform="translate(296.005 242.5)" fill="none" stroke="#ff8aac" stroke-linecap="round" stroke-width="2"/><line x1="9.009" transform="translate(291.5 247.005)" fill="none" stroke="#ff8aac" stroke-linecap="round" stroke-width="2"/></g></g></svg>