<svg xmlns="http://www.w3.org/2000/svg" width="17.666" height="17.645" viewBox="0 0 17.666 17.645"><path d="M8.833,0A8.609,8.609,0,0,0,5.4.693a8.859,8.859,0,0,0-4.706,4.7A8.535,8.535,0,0,0,0,8.812a8.586,8.586,0,0,0,.693,3.444,8.859,8.859,0,0,0,4.706,4.7,8.609,8.609,0,0,0,3.434.693,8.609,8.609,0,0,0,3.434-.693,8.859,8.859,0,0,0,4.706-4.7,8.586,8.586,0,0,0,.693-3.444,8.535,8.535,0,0,0-.693-3.424,8.859,8.859,0,0,0-4.706-4.7A8.609,8.609,0,0,0,8.833,0Zm-.89,12.35L4.427,8.812,5.668,7.571l2.3,2.3,4.054-4.075,1.22,1.262Z" fill="#00cd50"/></svg>