<svg xmlns="http://www.w3.org/2000/svg" width="24" height="25.954" viewBox="0 0 24 25.954"><g transform="translate(0 1)"><g transform="translate(0 0.954)" fill="none" stroke="#ff3f77" stroke-width="1"><rect width="24" height="24" rx="2" stroke="none"/><rect x="0.5" y="0.5" width="23" height="23" rx="1.5" fill="none"/></g><g transform="translate(5.282)"><line y2="3.684" fill="none" stroke="#fe4077" stroke-linecap="round" stroke-width="2"/><line y2="3.684" transform="translate(6.806)" fill="none" stroke="#fe4077" stroke-linecap="round" stroke-width="2"/><line y2="3.684" transform="translate(13.613)" fill="none" stroke="#fe4077" stroke-linecap="round" stroke-width="2"/></g><circle cx="1" cy="1" r="1" transform="translate(4 7.954)" fill="#fe4077"/><circle cx="1" cy="1" r="1" transform="translate(4 11.954)" fill="#fe4077"/><circle cx="1" cy="1" r="1" transform="translate(4 15.954)" fill="#fe4077"/><circle cx="1" cy="1" r="1" transform="translate(9 7.954)" fill="#fe4077"/><circle cx="1" cy="1" r="1" transform="translate(9 11.954)" fill="#fe4077"/><circle cx="1" cy="1" r="1" transform="translate(9 15.954)" fill="#fe4077"/><circle cx="1" cy="1" r="1" transform="translate(14 7.954)" fill="#fe4077"/><circle cx="1" cy="1" r="1" transform="translate(14 11.954)" fill="#fe4077"/><circle cx="1" cy="1" r="1" transform="translate(19 7.954)" fill="#fe4077"/><circle cx="1" cy="1" r="1" transform="translate(19 11.954)" fill="#fe4077"/></g></svg>