<svg xmlns="http://www.w3.org/2000/svg" width="268.83" height="261.885" viewBox="0 0 268.83 261.885"><g transform="translate(-9963.268 7497.196)"><path d="M655.921,394.181h0a10.553,10.553,0,0,0-4.2,4.2h0a10.551,10.551,0,0,0-4.2-4.2h0a10.551,10.551,0,0,0,4.2-4.2h0A10.594,10.594,0,0,0,655.921,394.181Z" transform="translate(9411.308 -7871.306)" fill="#ff8bac"/><path d="M748.593,142.516h0a8.893,8.893,0,0,0-3.536,3.536h0a8.893,8.893,0,0,0-3.536-3.536h0a8.893,8.893,0,0,0,3.536-3.536h0A8.9,8.9,0,0,0,748.593,142.516Z" transform="translate(9311.977 -7565.083)" fill="#f9e4d2"/><path d="M756.384,146.412h0a18.691,18.691,0,0,0-7.432,7.432h0a18.691,18.691,0,0,0-7.432-7.432h0a18.691,18.691,0,0,0,7.432-7.432h0A18.712,18.712,0,0,0,756.384,146.412Z" transform="translate(9424.447 -7609.472)" fill="#f9e4d2"/><path d="M713.921,177.181h0a10.552,10.552,0,0,0-4.2,4.2h0a10.552,10.552,0,0,0-4.2-4.2h0a10.552,10.552,0,0,0,4.2-4.2h0A10.593,10.593,0,0,0,713.921,177.181Z" transform="translate(9309.565 -7640.519)" fill="#ffc4c5"/><path d="M713.921,177.181h0a10.552,10.552,0,0,0-4.2,4.2h0a10.552,10.552,0,0,0-4.2-4.2h0a10.552,10.552,0,0,0,4.2-4.2h0A10.593,10.593,0,0,0,713.921,177.181Z" transform="translate(9373.835 -7578.928)" fill="#ffc4c5"/><path d="M551.921,65.181h0a10.551,10.551,0,0,0-4.2,4.2h0a10.552,10.552,0,0,0-4.2-4.2h0a10.552,10.552,0,0,0,4.2-4.2h0A10.592,10.592,0,0,0,551.921,65.181Z" transform="translate(9578.998 -7526.327)" fill="#ff8bac"/><path d="M551.921,65.181h0a10.551,10.551,0,0,0-4.2,4.2h0a10.552,10.552,0,0,0-4.2-4.2h0a10.552,10.552,0,0,0,4.2-4.2h0A10.592,10.592,0,0,0,551.921,65.181Z" transform="translate(9581.676 -7472.769)" fill="#ff8bac"/><path d="M551.921,65.181h0a10.551,10.551,0,0,0-4.2,4.2h0a10.552,10.552,0,0,0-4.2-4.2h0a10.552,10.552,0,0,0,4.2-4.2h0A10.592,10.592,0,0,0,551.921,65.181Z" transform="translate(9453.138 -7470.984)" fill="#ff8bac"/><path d="M701.2,392.32h0a26.012,26.012,0,0,0-10.34,10.34h0a26.012,26.012,0,0,0-10.34-10.34h0a26.012,26.012,0,0,0,10.34-10.34h0A26.032,26.032,0,0,0,701.2,392.32Z" transform="translate(9530.897 -7802.515)" fill="#ffc4c5"/><path d="M697.527,390.483h0a21.391,21.391,0,0,0-8.5,8.5h0a21.392,21.392,0,0,0-8.5-8.5h0a21.392,21.392,0,0,0,8.5-8.5h0A21.407,21.407,0,0,0,697.527,390.483Z" transform="translate(9282.748 -7784.559)" fill="#ffc4c5"/></g><path d="M346.292,395.293c-.345-1.6,1.4-5.139,2.011-6.653.819-2.014.259-4.285-.077-6.432-1.09-6.994.35-14.251-1.181-21.16-.159-.719-.618-1.608-1.337-1.452a1.3,1.3,0,0,0-.651.454c-1.682,1.882-1.967,4.588-2.173,7.106q-.808,9.9-1.62,19.808a4.5,4.5,0,0,1-1.125,3.172C342.578,391.441,344.222,393.455,346.292,395.293Z" transform="translate(-201.166 -206.374)" fill="#ffcddd" stroke="#000" stroke-miterlimit="10" stroke-width="1"/><path d="M358.825,401.2c.345-1.6-1.4-5.139-2.011-6.653-.819-2.014-.259-4.285.077-6.432,1.09-6.994-.35-14.251,1.181-21.16.159-.719.618-1.608,1.337-1.452a1.3,1.3,0,0,1,.651.454c1.682,1.882,1.967,4.588,2.173,7.106q.808,9.9,1.62,19.808a4.5,4.5,0,0,0,1.125,3.172C362.539,397.351,360.9,399.365,358.825,401.2Z" transform="translate(-212.631 -210.543)" fill="#ffcddd" stroke="#000" stroke-miterlimit="10" stroke-width="1"/><path d="M134.307,286.014a13.464,13.464,0,0,0,2.106,5.472c.922,1.387,2.12,2.636,2.642,4.214,1.037,3.131-.845,6.473-.724,9.766.1,2.8,1.652,5.378,1.888,8.172.221,2.636-.742,5.21-1.69,7.678a31.319,31.319,0,0,1-3.958,7.96,30.65,30.65,0,0,1-3,3.242,12.541,12.541,0,0,1-4.176,3.072c-3.154,1.175-6.741-.3-10.013.477a9.151,9.151,0,0,1-1.97.4c-1.57.009-2.848-1.29-3.584-2.674a4.786,4.786,0,0,1-.3-4.582,2.953,2.953,0,0,0-3.254-1.113,18.3,18.3,0,0,0-3.428,1.437,17.75,17.75,0,0,1-9.25.854,13.653,13.653,0,0,1-4.394-1.14c-2.194-1.09-3.814-3.128-6.025-4.179-3.446-1.643-7.675-.616-11.191-2.1-4.138-1.746-6.19-6.55-6.441-11.035a11.286,11.286,0,0,1,1.1-6.081,18.76,18.76,0,0,1,3.566-4.064,22.322,22.322,0,0,0,6.008-9.206,17.611,17.611,0,0,1,1.531-4.435,11.256,11.256,0,0,1,2.438-2.509q5.138-4.285,10.272-8.573a8.075,8.075,0,0,1,4.624-1.944,18.954,18.954,0,0,1,5.831.306,68.2,68.2,0,0,1,20.98,6.859c2.765,1.484,5.584,3.257,8.72,3.239a1.774,1.774,0,0,1,1.131.221C134.051,285.99,134.693,285.946,134.307,286.014Z" transform="translate(-8.828 -146.709)" fill="#ff8964"/><g transform="translate(60.452 129.177)"><path d="M104.811,278.284a24.766,24.766,0,0,1,4.046.421,68.056,68.056,0,0,1,20.889,6.827c.324.174.648.35.975.53,2.465,1.349,5.015,2.748,7.845,2.748h.242a1.232,1.232,0,0,1,.751.159,1.318,1.318,0,0,0,.474.215,13.849,13.849,0,0,0,2.129,5.454c.274.409.571.81.86,1.2a10.748,10.748,0,0,1,1.749,2.945c.586,1.77.2,3.611-.212,5.557a17.156,17.156,0,0,0-.527,4.129,16.4,16.4,0,0,0,.966,4.35,17.578,17.578,0,0,1,.922,3.834c.218,2.621-.786,5.239-1.673,7.548a31.111,31.111,0,0,1-3.917,7.887,30.428,30.428,0,0,1-2.977,3.21,12.388,12.388,0,0,1-4.073,3.007,8.263,8.263,0,0,1-2.951.457c-.754,0-1.54-.059-2.3-.118s-1.576-.118-2.362-.118a10.222,10.222,0,0,0-2.365.244c-.183.044-.365.094-.542.141a5.276,5.276,0,0,1-1.375.253c-1.832,0-3-1.929-3.31-2.518a4.462,4.462,0,0,1-.3-4.294l.085-.144-.08-.147a2.887,2.887,0,0,0-2.668-1.355,4.444,4.444,0,0,0-.9.094,10.374,10.374,0,0,0-2.453.963c-.339.168-.686.342-1.031.492a14.179,14.179,0,0,1-5.737,1.057,27.032,27.032,0,0,1-3.357-.227,13.46,13.46,0,0,1-4.3-1.113,16.221,16.221,0,0,1-2.9-2.029A15.966,15.966,0,0,0,91.3,327.79a15.905,15.905,0,0,0-5.852-1.149,16.741,16.741,0,0,1-5.351-.957,9.37,9.37,0,0,1-4.532-4.359,15.668,15.668,0,0,1-1.726-6.42,10.831,10.831,0,0,1,1.06-5.922,14.936,14.936,0,0,1,2.883-3.384c.212-.2.424-.409.633-.613a22.312,22.312,0,0,0,6.084-9.33c.121-.4.23-.816.333-1.213A10.874,10.874,0,0,1,86,291.3a11.066,11.066,0,0,1,2.38-2.441l10.272-8.573a7.826,7.826,0,0,1,4.476-1.879,11.286,11.286,0,0,1,1.685-.118m0-.294a12.233,12.233,0,0,0-1.735.118,8.083,8.083,0,0,0-4.624,1.944q-5.138,4.285-10.272,8.573a11.321,11.321,0,0,0-2.438,2.509,17.61,17.61,0,0,0-1.531,4.435,22.341,22.341,0,0,1-6.008,9.206,18.841,18.841,0,0,0-3.566,4.064,11.286,11.286,0,0,0-1.1,6.081c.247,4.485,2.3,9.289,6.441,11.035,3.516,1.484,7.745.459,11.191,2.1,2.212,1.054,3.828,3.092,6.025,4.179a13.658,13.658,0,0,0,4.394,1.143,27.741,27.741,0,0,0,3.4.23,14.569,14.569,0,0,0,5.855-1.084,18.3,18.3,0,0,1,3.428-1.437,4.24,4.24,0,0,1,.845-.088,2.63,2.63,0,0,1,2.409,1.2,4.786,4.786,0,0,0,.3,4.582c.733,1.381,2.008,2.674,3.569,2.674h.015a8.97,8.97,0,0,0,1.97-.4,10.009,10.009,0,0,1,2.3-.236c1.549,0,3.128.236,4.662.236a8.666,8.666,0,0,0,3.054-.474,12.581,12.581,0,0,0,4.176-3.072,30.35,30.35,0,0,0,3-3.242,31.318,31.318,0,0,0,3.958-7.96c.948-2.468,1.911-5.045,1.69-7.678-.233-2.795-1.782-5.372-1.888-8.172-.124-3.292,1.758-6.638.724-9.766-.524-1.581-1.72-2.83-2.642-4.214A13.506,13.506,0,0,1,140.307,289c.386-.068-.256-.024-.562-.265a1.464,1.464,0,0,0-.934-.221h-.239c-3.122,0-5.928-1.764-8.679-3.239a68.28,68.28,0,0,0-20.98-6.859,24.458,24.458,0,0,0-4.1-.43Z" transform="translate(-73.512 -277.99)" stroke="#000" stroke-width="0.5"/></g><path d="M435.63,273.809c5.413-2.695,11.783-3.949,15.762-8.352,1.387-1.537.922-3.543.436-5.657-.536-2.327-2.226-7.51-3.022-9.763a81.95,81.95,0,0,0-5.737-12.681c-3.454-6.179-7.489-12.831-13.359-16.94a24.965,24.965,0,0,0-15.788-4.426c-5.56.356-11.809,2.438-15.529,6.585-4.058,4.524-6,10.658-6.349,16.725s.766,12.125,2.185,18.035a70.025,70.025,0,0,0,4.447,13.526c1.128,2.4,8,17.314,10.075,18.963,2.907,2.309,5.893-2.556,9.571-3.045s2.9-6.1,6.193-7.8c.78-2.391,1.243-2.029,3.49-3.157,1.081-.542,2.22-.86,3.316-1.372,1.2-.56.165-1.74,1.467-1.976S434.485,273.147,435.63,273.809Z" transform="translate(-237.739 -105.037)" fill="#071c3f"/><path d="M438.63,268.809c5.413-2.695,11.783-3.949,15.762-8.352,1.387-1.537.922-3.543.436-5.657-.536-2.327-2.226-7.51-3.022-9.763a81.944,81.944,0,0,0-5.737-12.681c-3.454-6.179-7.489-12.831-13.358-16.94a24.965,24.965,0,0,0-15.788-4.426c-5.56.356-11.809,2.438-15.529,6.585-4.058,4.524-6,10.658-6.349,16.725s.766,12.125,2.185,18.035a70.03,70.03,0,0,0,4.447,13.526c1.128,2.4,8,17.314,10.075,18.963,2.907,2.309,5.893-2.556,9.571-3.045s2.9-6.1,6.193-7.8c.78-2.391,1.243-2.029,3.49-3.157,1.081-.542,2.221-.86,3.316-1.372,1.2-.56.165-1.74,1.467-1.976S437.485,268.147,438.63,268.809Z" transform="translate(-239.856 -101.509)" fill="none" stroke="#000" stroke-linecap="round" stroke-linejoin="round" stroke-miterlimit="10" stroke-width="1"/><path d="M504.128,377.01c7.975,12,14.878,26.266,20.6,39.551,3.566,8.272,6.694,16.792,11.279,24.52,1.994,3.363,9.238,11.058,8.063,14.8-.651,2.07-4.912,3.808-6.526,5.221-5.36,4.688-13.494,4.718-19.749,8.049-9.141-7.348-17.8-16.077-24-26.146C483.531,426.318,481,406.1,481.891,386.387c5.967-4.117,12.831-7.869,19.944-8.973Z" transform="translate(-301.054 -218.672)" fill="#faeebd" stroke="#000" stroke-linecap="round" stroke-linejoin="round" stroke-miterlimit="10" stroke-width="1"/><path d="M53.278,144.755a2.4,2.4,0,0,0,.071,1.526c.474.907,1.77.833,2.783.683a29.12,29.12,0,0,1,6.941-.188,1.851,1.851,0,0,0,.96-.077,1.805,1.805,0,0,0,.775-1.287q.49-1.9.978-3.8a4.515,4.515,0,0,0,.047-3.1,4.262,4.262,0,0,0-2.226-1.746,12.775,12.775,0,0,0-4.836-1.343C53.378,135.272,53.985,140.674,53.278,144.755Z" transform="translate(1.276 -48.229)" fill="#ffcddd" stroke="#000" stroke-miterlimit="10" stroke-width="1"/><path d="M108.459,257.021a27.407,27.407,0,0,0,3.7,2.073,1.286,1.286,0,0,1,.9,1.876q-4.5,16.5-9.9,32.737c-1.8,5.413-4.526,15.55-12.248,14.8a10.423,10.423,0,0,1-4.42-1.785c-6.09-3.826-10.148-9.356-13.8-15.426-1.328-2.206-2.524-4.426-3.852-6.632A175.239,175.239,0,0,1,55.687,326.67a5.468,5.468,0,0,1-2,2.671,5.523,5.523,0,0,1-3.107.395c-8.3-.554-16.7-1.119-24.673-3.493S10.281,319.505,5.493,312.7a9.663,9.663,0,0,1-1.729-3.563,11.669,11.669,0,0,1,.492-5.057c3.935-15.806,8.193-31.989,12.127-47.794-6.09-10.944-9.144-23.274-12.133-35.434A131.007,131.007,0,0,1,.707,200.339a65.384,65.384,0,0,1,2.542-23.9c1.048-3.51,1.361-7.975,4.839-9.627,4.205-2,13.323-3.189,17.826-1.667,4.7,1.593,1,7.471-.1,10.788-3.887,11.762-6.155,24.744-.842,36.3Q29,221.014,33.04,229.792c1.26,2.742,1.581,3.611,4.1,4.918a54.909,54.909,0,0,0,8.711,3.157c2.936.928,5.9,1.794,8.814,2.751A77.49,77.49,0,0,1,62.9,243.76a39.23,39.23,0,0,1,7.38,4.317c5.958,4.518,7.3,12.066,11.226,18.109,2.244,3.446,5.039,6.579,6.662,10.36,3.151-7.657,7.153-15.058,10.737-22.526.289-.6.654-1.26,1.3-1.422a2.218,2.218,0,0,1,1.408.271A50.8,50.8,0,0,1,108.459,257.021Z" transform="translate(38.448 -68.714)" fill="#fdcd76" stroke="#000" stroke-miterlimit="10" stroke-width="1"/><path d="M547.425,105.1a2.406,2.406,0,0,1,.277,1.5c-.259.99-1.537,1.213-2.559,1.3a28.983,28.983,0,0,0-6.8,1.381,1.823,1.823,0,0,1-.954.141c-.506-.109-.807-.618-1.045-1.078q-.906-1.741-1.808-3.481a4.511,4.511,0,0,1-.745-3.013,4.266,4.266,0,0,1,1.776-2.2,12.841,12.841,0,0,1,4.409-2.4C545.187,95.885,545.814,101.283,547.425,105.1Z" transform="translate(-337.74 -21.146)" fill="#ffcddd" stroke="#000" stroke-miterlimit="10" stroke-width="1"/><path d="M378.836,419.65a11.911,11.911,0,0,0-4.456,2.91,95.276,95.276,0,0,0-8.211,8.47c-.209.244-.421.6-.227.854a151.311,151.311,0,0,0-3.737,24.982c-2.226-6.576-4.32-18.668-7.227-25.23-5.11,2.78-9.347,7.2-14.392,10.237-1.346.81,5.8,27.029,6.414,29.889,1.926,8.87,2.294,18.023,11.344,22.476,3.316,1.632,7.675,2.68,10.413.2a11.291,11.291,0,0,0,2.542-4.509,76.644,76.644,0,0,1,5.6-11.485c-.639,1.075,1.381,6.832,1.637,8.214.551,2.966,1.069,5.934,1.632,8.9.568,3,1,6.126,1.746,9.141a7.141,7.141,0,0,0,8.464,5.26,111.56,111.56,0,0,0,30.21-11.441c2.327-1.3-15.317-25.324-16.681-27.3-6.388-9.238-12.122-19.063-15.547-29.815C386.034,434.1,383.516,425.731,378.836,419.65Z" transform="translate(-201.363 -248.754)" fill="#ff87ac" stroke="#000" stroke-miterlimit="10" stroke-width="1"/><path d="M565.227,244.9a47.5,47.5,0,0,1,2.6,4.167c2.056,3.773,3.522,8.806,6.311,12.083,2.721,3.2,4.88.545,8.046-1.14a115.264,115.264,0,0,1,14.207-6.193,6.7,6.7,0,0,0,3.811-8.976c-8.7-19.805-20.382-38.376-30.5-57.448a22.694,22.694,0,0,1-2.6-6.423,21.946,21.946,0,0,1-.053-5.628q1.144-14.366,3.434-28.614c1.246-7.745,2.506-17.726-.044-25.283-1.3-3.87-3.7-7.259-6.073-10.587L551.524,92.81c-1.855.931-17.558,11.933-17.349,12.157A96.18,96.18,0,0,1,551.1,130.574a23.444,23.444,0,0,1,2.244,7.186,26.8,26.8,0,0,1-.415,6.556q-1.864,12.709-3.726,25.418a4.538,4.538,0,0,1-.913,2.521,4.412,4.412,0,0,1-1.829,1,93.008,93.008,0,0,1-9.8,2.845c1.62,4.341,2.718,9.813,4.582,14.056q5.95,13.544,11.9,27.085c2.344,5.339,2.983,11.241,5.224,16.616C560.026,237.854,562.762,241.3,565.227,244.9Z" transform="translate(-338.057 -18.168)" fill="#ff88ac" stroke="#000" stroke-miterlimit="10" stroke-width="1"/><path d="M483.543,369.4a1.949,1.949,0,0,0,.327,1.146,1.4,1.4,0,0,0,.465.309,18.018,18.018,0,0,0,4.035,1.369c1.555.327,3.375.348,4.468-.948a6.407,6.407,0,0,0,.963-1.873,5.892,5.892,0,0,0,.536-2.3c-.071-1.72-1.531-2.9-2.188-4.456-.542-1.281-.554-2.88-1.425-3.905-.889-1.043-2.324-1.093-3.6-1.075-2.017.029-5.11,1.016-5.613,3.7C481.066,363.687,483.331,366.891,483.543,369.4Z" transform="translate(-300.86 -205.021)" fill="#ffcddd"/><g transform="translate(51.544 55.997)"><path d="M59.674,67.993a1.575,1.575,0,0,1-.739-.18l-14.269-7.28a1.632,1.632,0,0,1-.71-2.2l14-27.444A1.626,1.626,0,0,1,59.414,30a1.575,1.575,0,0,1,.739.18l14.268,7.28a1.636,1.636,0,0,1,.713,2.2l-14,27.444A1.631,1.631,0,0,1,59.674,67.993Z" transform="translate(-43.625 -29.853)" fill="#fff"/><path d="M59.053,29.5v.295a1.5,1.5,0,0,1,.674.162L74,37.236a1.483,1.483,0,0,1,.739.866,1.462,1.462,0,0,1-.091,1.134l-14,27.444a1.48,1.48,0,0,1-1.325.81,1.5,1.5,0,0,1-.674-.162l-14.268-7.28a1.488,1.488,0,0,1-.648-2l14-27.444a1.48,1.48,0,0,1,1.325-.81V29.5m0,0a1.778,1.778,0,0,0-1.587.972l-14,27.447a1.778,1.778,0,0,0,.777,2.394l14.269,7.28a1.779,1.779,0,0,0,2.394-.777l14-27.444a1.778,1.778,0,0,0-.777-2.394L59.863,29.7a1.776,1.776,0,0,0-.81-.2Z" transform="translate(-43.267 -29.5)"/></g><path d="M63.045,70.7,51.424,64.774a1.783,1.783,0,0,1-.777-2.394L63.071,38.034a1.783,1.783,0,0,1,2.394-.777l11.621,5.928a1.783,1.783,0,0,1,.777,2.394L65.442,69.925A1.782,1.782,0,0,1,63.045,70.7Z" transform="translate(3.207 21.161)" fill="#081d3f"/><path d="M108.523,96.955c-.186-.377-.371-.822-.775-.945a1.038,1.038,0,0,0-.984.348,2.232,2.232,0,0,0-.2,2.839c.368.486.981.916.91,1.523a1.771,1.771,0,0,1-.515.869,6.519,6.519,0,0,0-1.269,5.908,2.517,2.517,0,0,0,.448.934c.713.845,2.091.674,3.042.118a8.547,8.547,0,0,0,2.983-3.454c.742-1.366,1.581-3.643.25-4.945-.562-.551-1.478-.713-2.123-1.157A5.371,5.371,0,0,1,108.523,96.955Z" transform="translate(-35.592 -20.404)" fill="#ffcddd" stroke="#000" stroke-miterlimit="10" stroke-width="1"/><g transform="translate(174.454 47.309)"><path d="M482.591,37.657a1.629,1.629,0,0,1-1.249-.58L461.5,13.5a1.633,1.633,0,0,1,.2-2.3L473.959.883a1.638,1.638,0,0,1,2.3.2L496.1,24.655a1.635,1.635,0,0,1-.2,2.3L483.648,37.268a1.649,1.649,0,0,1-1.057.389Z" transform="translate(-460.972 -0.353)" fill="#fff"/><path d="M474.656.294a1.476,1.476,0,0,1,1.137.53L495.633,24.4a1.488,1.488,0,0,1-.18,2.094L483.2,36.807a1.5,1.5,0,0,1-.954.35,1.476,1.476,0,0,1-1.137-.53l-19.84-23.575a1.484,1.484,0,0,1,.18-2.094L473.7.645a1.478,1.478,0,0,1,.954-.35m0-.294a1.78,1.78,0,0,0-1.146.418L461.253,10.732a1.782,1.782,0,0,0-.215,2.509l19.84,23.575a1.782,1.782,0,0,0,2.509.215l12.257-10.313a1.782,1.782,0,0,0,.215-2.509L476.019.633A1.771,1.771,0,0,0,474.656,0Z" transform="translate(-460.62)"/></g><path d="M488.814,40.231l9.981-8.4a1.782,1.782,0,0,0,.215-2.509l-17.6-20.909A1.782,1.782,0,0,0,478.9,8.2l-9.981,8.4a1.782,1.782,0,0,0-.215,2.509l17.6,20.912A1.781,1.781,0,0,0,488.814,40.231Z" transform="translate(-291.576 41.82)" fill="#081d3f"/><path d="M496.332,73.609c.13-.4.253-.866.636-1.043a1.046,1.046,0,0,1,1.022.206,2.231,2.231,0,0,1,.595,2.783c-.3.533-.845,1.045-.689,1.634a1.771,1.771,0,0,0,.63.789,6.527,6.527,0,0,1,2.079,5.672,2.455,2.455,0,0,1-.312.987c-.589.937-1.976.96-3,.539a8.546,8.546,0,0,1-3.434-3.007c-.925-1.249-2.073-3.387-.936-4.859.48-.621,1.364-.913,1.941-1.443A5.39,5.39,0,0,0,496.332,73.609Z" transform="translate(-308.623 -3.841)" fill="#ffcddd" stroke="#000" stroke-miterlimit="10" stroke-width="1"/><ellipse cx="15.664" cy="19.36" rx="15.664" ry="19.36" transform="matrix(0.94, -0.34, 0.34, 0.94, 158.833, 127.751)" fill="#ffcddd"/><ellipse cx="4.568" cy="5.657" rx="4.568" ry="5.657" transform="translate(190.203 134.756) rotate(-14.318)" fill="#ffcddd"/><path d="M483.34,318.716a22.406,22.406,0,0,1,1.537,4.833,1.949,1.949,0,0,0,.327,1.146,1.4,1.4,0,0,0,.465.309,18.015,18.015,0,0,0,4.035,1.369c1.555.327,3.375.348,4.468-.948a6.405,6.405,0,0,0,.963-1.873,5.893,5.893,0,0,0,.536-2.3c-.071-1.72-1.531-2.9-2.188-4.456a8.654,8.654,0,0,1-.395-1.263,16.976,16.976,0,0,0,5.342-11.68,3.827,3.827,0,0,0,1.2-.1c2.444-.624,3.8-3.584,3.027-6.612s-3.381-4.974-5.825-4.35a3.368,3.368,0,0,0-.38.124" transform="translate(-302.194 -159.173)" fill="none" stroke="#000" stroke-linecap="round" stroke-linejoin="round" stroke-miterlimit="10" stroke-width="1"/><path d="M511.846,484.66c-.065.062-.133.121-.2.177a25.571,25.571,0,0,1-10.09,5.637,378.961,378.961,0,0,1-22.247-52.112q-2.293,1.882-4.585,3.761c-5.236-9.933-6.111-21.531-6.882-32.745a6.5,6.5,0,0,1,.1-2.191,3.6,3.6,0,0,1,.183-.492,6.859,6.859,0,0,1,1.051-1.567,34.2,34.2,0,0,1,4.553-4.067c.875.029,1.234,1.143,1.584,1.958,4.812,11.279,8.328,23.074,12.7,34.539a247.144,247.144,0,0,0,22.591,44.935c.2.321.368.589.527.848A14.268,14.268,0,0,1,511.846,484.66Z" transform="translate(-291.231 -235.639)" fill="#ff8bac" stroke="#000" stroke-miterlimit="10" stroke-width="1"/><path d="M536.747,384.836c5.8,6.924,10.956,15.055,16.451,22.261a29.026,29.026,0,0,1-4.915,3.237c-.239.118,20.073,45.038,21.743,49.393a1.651,1.651,0,0,1,.13,1.237,1.6,1.6,0,0,1-.574.592,25.281,25.281,0,0,1-7.124,3.519c-1.043.324-2.792,1.051-3.89.884-1.5-.233-1.2-1.128-1.334-2.391-.6-5.548-4.044-11.5-6.22-16.642q-9.772-23.1-19.546-46.2-2.469-5.84-4.942-11.683l-5.2-11.827,6.1-1.905a2.386,2.386,0,0,1,2.606.857Z" transform="translate(-328.996 -217.401)" fill="#ff8bac" stroke="#000" stroke-miterlimit="10" stroke-width="1"/><path d="M445.977,244.059q-2.907-3.53-5.811-7.059a11.362,11.362,0,0,0-3.914-3.478,10.585,10.585,0,0,0-4.747-.568c-3.4.15-6.879.563-9.883,2.156-2.409,1.278-5.224,3.952-5.439,6.868a4.715,4.715,0,0,0,1.973,3.731,4.986,4.986,0,0,0-1.3,1.269,10.19,10.19,0,0,0-1.4,3.307,18.835,18.835,0,0,0-.306,10.1,3.145,3.145,0,0,0,.878,1.593,2.38,2.38,0,0,0,2.821-.074,5.693,5.693,0,0,0,1.743-2.441c.645-1.452,2.209-7.274,1.876-11.05a10.14,10.14,0,0,0,4.4,1.246,14.257,14.257,0,0,0,3.864-.766,113.98,113.98,0,0,1,16.074-2.936A2.6,2.6,0,0,0,445.977,244.059Z" transform="translate(-253.688 -117.017)" fill="#071b3f"/><path d="M431.42,278.939a20.459,20.459,0,0,0,1.151-8.841,10.141,10.141,0,0,0,4.4,1.246,14.259,14.259,0,0,0,3.864-.766,113.978,113.978,0,0,1,16.074-2.936,2.55,2.55,0,0,0-.819-1.9" transform="translate(-265.565 -140.171)" fill="none" stroke="#000" stroke-linecap="round" stroke-linejoin="round" stroke-miterlimit="10" stroke-width="1"/><path d="M171.785,420.275c-.312,3.775-2.279,5.858-4.353,6.679a8.356,8.356,0,0,1-9.91-3.157c-2.877-4.188-3.063-10.237-3.063-10.237h0c2.936.928,5.9,1.793,8.814,2.751a77.5,77.5,0,0,1,8.231,3.142Z" transform="translate(-70.17 -244.458)" fill="#ff86ac" stroke="#000" stroke-miterlimit="10" stroke-width="1"/><path d="M163.8,387.446a9.875,9.875,0,0,0,.692,3.387c.763,2.191,1.705,4.338,3.069,5.522a3.367,3.367,0,0,0,4.644-.012,9.421,9.421,0,0,0,2.58-6.308c.068-1.113-.006-2.238.062-3.351.171-2.78,1.2-5.7.409-8.175a6.287,6.287,0,0,0-.981-1.829c-1.973-2.709-4.865-3.864-6.553-.156-.727,1.6-1.072,3.652-1.811,5.292C165.118,383.579,163.831,385.049,163.8,387.446Z" transform="translate(-76.757 -216.668)" fill="#ffcddd"/><path d="M167.718,381.16c-.727,1.6-1.072,3.652-1.811,5.292-.792,1.761-2.076,3.231-2.109,5.628a9.875,9.875,0,0,0,.692,3.387c.763,2.191,1.705,4.338,3.069,5.522" transform="translate(-76.757 -221.6)" fill="none" stroke="#000" stroke-linecap="round" stroke-linejoin="round" stroke-miterlimit="10" stroke-width="1"/><path d="M163.451,305.755c12.9,16.265,38.576-13.945,31.238-26-4.45-10.982-18.792-9.041-28.148-5.816-5.672,4.906-7.663,15.134-6.812,22.544A18.153,18.153,0,0,0,163.451,305.755Z" transform="translate(-73.754 -144.174)" fill="#ffcddd"/><path d="M233.48,307.663a12.978,12.978,0,0,0,6.824,3.64,4.815,4.815,0,0,0,2.179-.071,4.39,4.39,0,0,0,2.553-2.595,8.9,8.9,0,0,0-.692-7.539,19.121,19.121,0,0,0-5.263-5.722,9.815,9.815,0,0,0-3.581-1.988c-2.544-.624-7.954.689-8.161,3.935C227.122,300.748,231.183,305.448,233.48,307.663Z" transform="translate(-121.58 -159.57)" fill="#ff8964"/><path d="M158.775,297.342c-2.6.4-5.607.621-7.492-1.21a2.265,2.265,0,0,1-.783-1.576,2.745,2.745,0,0,1,.509-1.366,14.532,14.532,0,0,1,7.666-5.9,18.438,18.438,0,0,1,9.739-.427c3.31.716,7.675,4.7,3.51,7.433C168.467,296.564,162.742,296.726,158.775,297.342Z" transform="translate(-67.375 -154.75)" fill="#ff8964"/><ellipse cx="5.657" cy="4.568" rx="5.657" ry="4.568" transform="matrix(0.055, -0.998, 0.998, 0.055, 81.483, 151.978)" fill="#ffcddd"/><ellipse cx="5.657" cy="4.568" rx="5.657" ry="4.568" transform="matrix(0.377, -0.926, 0.926, 0.377, 108.912, 159.3)" fill="#ffcddd"/><g transform="translate(87.41 140.901)"><path d="M170.471,328.879l-1.679-.654a5.864,5.864,0,0,1-3.337-7.6l1.1-2.83,12.61,4.909-1.1,2.83A5.864,5.864,0,0,1,170.471,328.879Z" transform="translate(-165.053 -317.8)" fill="#081d3f"/><path d="M221.191,348.629l-1.679-.654a5.864,5.864,0,0,1-3.337-7.6l1.1-2.83,12.61,4.909-.713,1.275C228,346.756,224.21,349.8,221.191,348.629Z" transform="translate(-200.836 -331.734)" fill="#081d3f"/><rect width="2.494" height="1.069" transform="translate(13.344 6.895) rotate(21.274)" fill="#081d3f"/></g><path d="M58.076,64.184c.692-.174,1.558-.206,1.973.371a1.814,1.814,0,0,1,.218,1.2,17.532,17.532,0,0,1-2.309,6.485c-.76,1.475-1.667,3.086-3.248,3.6a1.84,1.84,0,0,1-1.729-.206,2.35,2.35,0,0,1-.627-1.7C52.036,69.2,53.217,65.406,58.076,64.184Z" transform="translate(1.9 2.106)" fill="#ffcddd" stroke="#000" stroke-miterlimit="10" stroke-width="1"/><path d="M546.583,44.461c-.077.71-.347,1.534-1.034,1.723a1.8,1.8,0,0,1-1.2-.212,17.479,17.479,0,0,1-5.28-4.417c-1.122-1.225-2.315-2.636-2.247-4.294a1.841,1.841,0,0,1,.792-1.549,2.361,2.361,0,0,1,1.814,0C543.977,37.06,547.125,39.481,546.583,44.461Z" transform="translate(-339.925 22.244)" fill="#ffcddd" stroke="#000" stroke-miterlimit="10" stroke-width="1"/><g transform="translate(86.317 49.978)"><g transform="translate(0 9.76)"><path d="M162.35,45.042l-1.01-1.417c.032-.024.807-.574,2.285-1.425l.869,1.508C163.1,44.515,162.359,45.039,162.35,45.042Z" transform="translate(-161.34 -42.2)" fill="#081d3f"/></g><g transform="translate(7.115)"><path d="M186.227,17.921,185.5,16.34c1.6-.739,3.287-1.437,5-2.076l.61,1.632C189.432,16.52,187.791,17.2,186.227,17.921Zm67.184-1.193c-1.676-.589-3.372-1.143-5.048-1.643l.5-1.667c1.7.509,3.425,1.072,5.124,1.67ZM196.123,14.22l-.495-1.67c1.711-.507,3.472-.966,5.23-1.366l.383,1.7C199.521,13.274,197.8,13.722,196.123,14.22Zm47.126-.533c-1.723-.424-3.466-.807-5.18-1.14l.33-1.708c1.743.336,3.516.727,5.269,1.157Zm-36.807-1.805-.274-1.717c1.764-.283,3.566-.515,5.36-.686l.168,1.732C209.938,11.378,208.171,11.6,206.442,11.881Zm26.393-.2c-1.752-.241-3.525-.436-5.269-.577l.141-1.735c1.776.144,3.581.342,5.366.589Zm-15.856-.828-.062-1.74c1.066-.038,2.144-.056,3.213-.056h.018q1.073,0,2.17.027l-.041,1.74c-.724-.018-1.449-.024-2.147-.027C219.082,10.8,218.022,10.821,216.979,10.856Z" transform="translate(-185.5 -9.06)" fill="#081d3f"/></g><g transform="translate(80.007 7.931)"><path d="M435.4,38.6c-.8-.342-1.6-.674-2.394-.992l.648-1.614q1.206.486,2.43,1.007Z" transform="translate(-433.01 -35.99)" fill="#081d3f"/></g><g transform="translate(80.278 5.999)"><path d="M433.93,36.092l7.248-.766-4.285-5.9Z" transform="translate(-433.93 -29.43)" fill="#081d3f"/></g></g><ellipse cx="4.568" cy="5.657" rx="4.568" ry="5.657" transform="translate(159.522 146.005) rotate(-33.278)" fill="#ffcddd"/><circle cx="2.356" cy="2.356" r="2.356" transform="translate(209.588 190.454)" fill="#081d3f" stroke="#000" stroke-miterlimit="10" stroke-width="1"/><circle cx="2.356" cy="2.356" r="2.356" transform="translate(214.3 200.761)" fill="#081d3f" stroke="#000" stroke-miterlimit="10" stroke-width="1"/><circle cx="2.356" cy="2.356" r="2.356" transform="translate(219.013 210.479)" fill="#081d3f" stroke="#000" stroke-miterlimit="10" stroke-width="1"/><circle cx="2.356" cy="2.356" r="2.356" transform="translate(189.856 200.761)" fill="#081d3f" stroke="#000" stroke-miterlimit="10" stroke-width="1"/><circle cx="2.356" cy="2.356" r="2.356" transform="translate(194.568 211.068)" fill="#081d3f" stroke="#000" stroke-miterlimit="10" stroke-width="1"/><circle cx="2.356" cy="2.356" r="2.356" transform="translate(199.28 220.787)" fill="#081d3f" stroke="#000" stroke-miterlimit="10" stroke-width="1"/><path d="M152.948,279.98c-3.03,2.621-5.009,6.765-6.067,11.182-.018,0-.035-.006-.053-.006-2.518-.138-4.7,2.276-4.874,5.4-.171,3.086,1.69,5.7,4.173,5.89,0,.027.006.053.009.082a18.172,18.172,0,0,0,3.725,9.274" transform="translate(-61.339 -150.217)" fill="none" stroke="#000" stroke-linecap="round" stroke-linejoin="round" stroke-miterlimit="10" stroke-width="1"/><g transform="translate(95.234 111.51)"><path d="M218.984,236.673c-.489-.044-1-.1-1.508-.165-.259-.032-.515-.068-.775-.1s-.5-.074-.751-.112a6.5,6.5,0,0,0-2.636-.43,13.987,13.987,0,0,1-1.632-.1l-.127-.009c-.321-.024-.645-.047-.969-.074a20.94,20.94,0,0,1-5.551-1.043.181.181,0,0,0-.038-.009,9.762,9.762,0,0,1-2.112-.409,25.741,25.741,0,0,1-3.5-1.467,20.4,20.4,0,0,0-4.736-1.8c-.383-.153-.786-.318-1.178-.489a3.209,3.209,0,0,1-.736-.73,3.879,3.879,0,0,1-.595-2.689,8.065,8.065,0,0,1,.171-1.042c1.29-5.534,4.7-7.5,7.466-7.5.221,0,.445.012.669.032a9.847,9.847,0,0,1,1.207.159,10.7,10.7,0,0,1,1.2.3c.353.085.713.168,1.081.253l.465.106c4.043.922,9.074,2.067,11.98,4.847a8.7,8.7,0,0,1,.822.9c1.425,2.268,1.511,5.03,1.6,7.7.015.507.032,1.01.056,1.508l.006.082c.026.292.053.58.074.863.024.324.038.618.047.9a.7.7,0,0,0,.135.418C219.084,236.606,219.031,236.641,218.984,236.673Z" transform="translate(-191.97 -218.353)" fill="#fece76"/><path d="M199.432,218.294c.215,0,.436.012.663.032a10.053,10.053,0,0,1,1.184.156,10.771,10.771,0,0,1,1.187.3.2.2,0,0,0,.021.006c.345.082.7.165,1.072.25l.468.106c4.026.919,9.035,2.059,11.913,4.809a8.525,8.525,0,0,1,.8.878c1.4,2.244,1.49,4.983,1.573,7.628.015.5.032,1.01.056,1.523l.009.1c.026.283.05.563.071.836.024.327.038.618.047.9a.945.945,0,0,0,.08.348c-.462-.044-.939-.094-1.422-.156-.259-.032-.515-.068-.772-.1s-.486-.071-.73-.109a6.614,6.614,0,0,0-2.674-.436,14.371,14.371,0,0,1-1.617-.1.037.037,0,0,1-.018,0l-.141-.012-.942-.071a20.841,20.841,0,0,1-5.513-1.034.36.36,0,0,0-.077-.018,9.643,9.643,0,0,1-2.079-.4,25.756,25.756,0,0,1-3.481-1.458,20.6,20.6,0,0,0-4.744-1.8c-.386-.15-.769-.309-1.146-.474a3.083,3.083,0,0,1-.7-.692,3.733,3.733,0,0,1-.565-2.589,7.678,7.678,0,0,1,.168-1.022,11.85,11.85,0,0,1,2.506-5.115,6.261,6.261,0,0,1,4.812-2.274m0-.295c-4.176,0-6.718,3.79-7.61,7.619a8.148,8.148,0,0,0-.174,1.063,4.023,4.023,0,0,0,.621,2.789,3.357,3.357,0,0,0,.8.78c.4.177.8.342,1.207.5,2.933.586,5.445,2.412,8.222,3.257a9.693,9.693,0,0,0,2.144.415,20.965,20.965,0,0,0,5.59,1.048c.365.029.727.056,1.087.082,1.634.218,2.918-.074,4.244.527.256.041.515.08.775.115l.777.106c.518.065,1.04.124,1.564.168.56-.377.138-.115.109-.669-.006-.295-.024-.6-.047-.9s-.053-.621-.08-.942c-.156-3.142.044-6.544-1.682-9.294a8.5,8.5,0,0,0-.836-.922c-3.051-2.916-8.458-4.061-12.516-4.989-.368-.085-.727-.168-1.069-.25a11.3,11.3,0,0,0-1.216-.306,9.642,9.642,0,0,0-1.222-.159,6.868,6.868,0,0,0-.686-.035Z" transform="translate(-191.622 -218)" fill="#fece76"/></g><g transform="translate(82.145 121.285)"><path d="M186.613,273.052a41.36,41.36,0,0,1-8.411-1.01A75.471,75.471,0,0,1,160.19,265.7a53.222,53.222,0,0,1-8.95-5.289c-1-.766-3.661-2.795-3.566-4.3.18-2.913,4.494-3.139,5.81-3.139.127,0,.25,0,.371.006.565.015,1.166.059,1.805.1.863.059,1.758.124,2.633.124,1.434,0,3.469-.15,4.715-1.443l21.089,5.8c1.316.571,2.754,1.207,4.223,1.938.6.3,1.228.542,1.835.777a15.962,15.962,0,0,1,2.433,1.11c.872.524,1.72,1.1,2.542,1.661.772.524,1.567,1.066,2.4,1.576,1.308.8,1.985,1.561,2.073,2.321a2.347,2.347,0,0,1-.9,1.885c-1.581,1.558-3.8,2.447-6.323,3.366a17.184,17.184,0,0,1-5.763.86Z" transform="translate(-147.524 -251.592)" fill="#fece76"/><path d="M162.694,251.52l20.986,5.769c1.328.577,2.757,1.207,4.217,1.932.61.3,1.237.548,1.847.783a15.566,15.566,0,0,1,2.412,1.1c.869.521,1.714,1.1,2.533,1.655.772.524,1.57,1.069,2.4,1.579,1.266.775,1.92,1.5,2,2.212a2.206,2.206,0,0,1-.857,1.761c-1.561,1.537-3.764,2.418-6.27,3.331a16.837,16.837,0,0,1-5.71.857,41.1,41.1,0,0,1-8.381-1.007,75.262,75.262,0,0,1-17.976-6.332,53.135,53.135,0,0,1-8.926-5.275c-.889-.68-3.6-2.748-3.51-4.173.171-2.783,4.379-3,5.666-3,.124,0,.247,0,.365.006.562.015,1.163.059,1.8.1.866.062,1.761.124,2.642.124,1.437,0,3.472-.147,4.759-1.422m-.088-.33c-1.081,1.181-2.821,1.464-4.668,1.464-1.508,0-3.086-.188-4.432-.224-.121,0-.244-.006-.374-.006-2.382,0-5.8.621-5.958,3.278-.094,1.546,2.453,3.531,3.625,4.426a52.8,52.8,0,0,0,8.976,5.3,75.854,75.854,0,0,0,18.047,6.355,41.8,41.8,0,0,0,8.443,1.013,17.183,17.183,0,0,0,5.81-.875c2.244-.819,4.7-1.749,6.376-3.4,1.74-1.717.954-3.116-1.2-4.435-1.714-1.051-3.251-2.221-4.939-3.237-1.355-.813-2.863-1.193-4.279-1.894-1.449-.719-2.839-1.337-4.25-1.947l-21.18-5.825Z" transform="translate(-147.171 -251.19)" fill="#fece76"/></g><g transform="translate(92.504 118.923)"><path d="M210.625,254.5c-.512,0-1.043-.038-1.555-.077l-.133-.009c-6-.43-12.122-2.288-17.873-4.152l-.262-.085c-1.581-.512-3.216-1.043-4.759-1.679-.141-.059-.345-.133-.58-.218-.842-.3-2.25-.813-2.518-1.293a1.872,1.872,0,0,1,.339-1.617c.5-.848,1.39-1.705,2.135-1.705a.915.915,0,0,1,.2.024l.109.1a.153.153,0,0,0,.041.065c.062.056.127.112.191.168a.156.156,0,0,0,.062.032l.227.206a4.246,4.246,0,0,0,.763.489c3.558,1.717,7.954,2.674,11.833,3.519.456.1.907.2,1.352.3.736.162,1.5.359,2.232.548a27.422,27.422,0,0,0,5.59,1.034c.056,0,.112,0,.165,0a9.215,9.215,0,0,0,1.667-.2,9.055,9.055,0,0,1,1.614-.2,3.534,3.534,0,0,1,.474.029,2.339,2.339,0,0,1,1.805,1.947,2.025,2.025,0,0,1-.627,2.215A4.616,4.616,0,0,1,210.625,254.5Z" transform="translate(-182.712 -243.523)" fill="#071a3f"/><path d="M185.052,243.464a.635.635,0,0,1,.133.012l.053.05a.273.273,0,0,0,.068.088c.062.053.121.109.186.162l.009.009a1.484,1.484,0,0,0,.348.283,4.171,4.171,0,0,0,.736.462c3.575,1.723,7.978,2.683,11.865,3.531.456.1.907.2,1.352.3.733.162,1.493.356,2.229.545a27.43,27.43,0,0,0,5.622,1.04c.056,0,.115,0,.171,0a9.44,9.44,0,0,0,1.693-.206,8.826,8.826,0,0,1,1.587-.2,3.8,3.8,0,0,1,.456.027,2.2,2.2,0,0,1,1.682,1.832,1.941,1.941,0,0,1-.563,2.059,4.457,4.457,0,0,1-2.418.545c-.509,0-1.037-.038-1.546-.074l-.133-.009c-5.987-.43-12.1-2.282-17.838-4.147l-.274-.088c-1.576-.509-3.2-1.04-4.736-1.67-.147-.062-.35-.135-.589-.221-.769-.277-2.2-.792-2.441-1.228a1.768,1.768,0,0,1,.339-1.47,3.025,3.025,0,0,1,2.008-1.634m0-.294c-1.369,0-3.148,2.568-2.6,3.54.374.666,2.486,1.293,3.172,1.576,1.632.674,3.351,1.222,5.033,1.767,5.819,1.888,11.895,3.728,17.909,4.158.56.041,1.137.085,1.7.085a4.8,4.8,0,0,0,2.574-.589c1.449-.907.751-4.185-1.24-4.432a3.967,3.967,0,0,0-.492-.029c-1.1,0-2.176.4-3.281.4-.053,0-.106,0-.159,0-2.533-.094-5.233-1.01-7.8-1.579-4.276-.945-9.2-1.9-13.152-3.8a4.316,4.316,0,0,1-.73-.465l.018.015a1.266,1.266,0,0,1-.306-.253c-.065-.056-.127-.112-.188-.168a1.16,1.16,0,0,1,.188.168c.094.079.188.159.289.239l-.654-.592a1.137,1.137,0,0,0-.28-.035Z" transform="translate(-182.348 -243.17)" fill="#071a3f"/></g><path d="M197.068,370.97c.348,1.4-3.092,4.762-5.018.8" transform="translate(-96.688 -214.41)" fill="none" stroke="#000" stroke-linecap="round" stroke-linejoin="round" stroke-miterlimit="10" stroke-width="1"/><circle cx="1.599" cy="1.599" r="1.599" transform="translate(104.198 158.129)" fill="#ff8964"/><circle cx="1.599" cy="1.599" r="1.599" transform="translate(88.885 152.534)" fill="#ff8964"/><path d="M200.191,352.4a1.492,1.492,0,0,0-.621,1.514" transform="translate(-101.974 -199.309)" fill="none" stroke="#000" stroke-linecap="round" stroke-linejoin="round" stroke-miterlimit="10" stroke-width="1"/><ellipse cx="1.228" cy="2.044" rx="1.228" ry="2.044" transform="matrix(0.943, -0.333, 0.333, 0.943, 182.984, 136.75)"/><ellipse cx="1.228" cy="2.044" rx="1.228" ry="2.044" transform="matrix(0.943, -0.333, 0.333, 0.943, 172.823, 141.034)"/><path d="M478.844,339.1c.127,1.225-3.2,3.655-4.344.062" transform="translate(-293.957 -189.926)" fill="none" stroke="#000" stroke-linecap="round" stroke-linejoin="round" stroke-miterlimit="10" stroke-width="1"/><circle cx="2.221" cy="2.221" r="2.221" transform="translate(188.36 140.592)" fill="#ff8964"/><circle cx="2.221" cy="2.221" r="2.221" transform="translate(172.584 146.859)" fill="#ff8964"/><path d="M490.94,317a1.282,1.282,0,0,1,.825,1.131" transform="translate(-307.557 -174.334)" fill="none" stroke="#000" stroke-linecap="round" stroke-linejoin="round" stroke-miterlimit="10" stroke-width="1"/><path d="M73.363,550.66a50.671,50.671,0,0,0,9.453,33.629" transform="translate(-12.842 -341.182)" fill="none" stroke="#000" stroke-linecap="round" stroke-linejoin="round" stroke-miterlimit="10" stroke-width="1"/><path d="M108.79,632.29a61.092,61.092,0,0,0,6.506,10.52" transform="translate(-37.949 -398.771)" fill="none" stroke="#000" stroke-linecap="round" stroke-linejoin="round" stroke-miterlimit="10" stroke-width="1"/><path d="M454.139,519.571q-1.144-21.328-2.969-42.611" transform="translate(-279.498 -289.187)" fill="none" stroke="#000" stroke-linecap="round" stroke-linejoin="round" stroke-miterlimit="10" stroke-width="1"/><path d="M414.08,548.62a173.675,173.675,0,0,0,1.051,19.169" transform="translate(-253.332 -339.743)" fill="none" stroke="#000" stroke-linecap="round" stroke-linejoin="round" stroke-miterlimit="10" stroke-width="1"/><path d="M606.73,227.846q5.323-1.21,10.537-2.836" transform="translate(-389.246 -111.436)" fill="none" stroke="#000" stroke-linecap="round" stroke-linejoin="round" stroke-miterlimit="10" stroke-width="1"/><path d="M40.1,299.52q-4.378.967-8.755,1.932" transform="translate(16.692 -164.002)" fill="none" stroke="#000" stroke-linecap="round" stroke-linejoin="round" stroke-miterlimit="10" stroke-width="1"/><path d="M296.34,558.47a40.268,40.268,0,0,1,2.235,12.928" transform="translate(-170.266 -346.692)" fill="none" stroke="#000" stroke-linecap="round" stroke-linejoin="round" stroke-miterlimit="10" stroke-width="1"/><g transform="translate(22.077)"><g transform="translate(152.945)"><path d="M373.71,43.71s3.748,13.04,14.989,16.337l6.37-7.119s-11.692-5.846-12.441-14.839Z" transform="translate(-373.71 -38.09)" fill="#86c6a5"/><path d="M409.512,79.351a3.261,3.261,0,1,1-3.261-3.261A3.261,3.261,0,0,1,409.512,79.351Z" transform="translate(-396.322 -67.436)" fill="#f9e4d2"/><path d="M382.778,66.7a.775.775,0,1,1-.749-.975A.885.885,0,0,1,382.778,66.7Z" transform="translate(-379.556 -59.436)" fill="#f9e4d2"/><path d="M433.087,120.931a.775.775,0,1,1-1.209.221A.885.885,0,0,1,433.087,120.931Z" transform="translate(-418.581 -101.961)" fill="#f9e4d2"/><path d="M454.075,99.9a.616.616,0,1,1-.961.175A.7.7,0,0,1,454.075,99.9Z" transform="translate(-434.991 -85.741)" fill="#f9e4d2"/><path d="M408.158,50.259a.62.62,0,1,1-.6-.779A.707.707,0,0,1,408.158,50.259Z" transform="translate(-399.388 -46.886)" fill="#f9e4d2"/></g><g transform="translate(98.885 3.241)"><path d="M255.426,9.407S242.013,7.365,234.32,16.2l3.808,8.763s10.2-8.18,18.681-5.106Z" transform="translate(-234.32 -9.203)" fill="#86c6a5"/><path d="M271.249,30.073a3.261,3.261,0,1,1,4.325-1.6A3.262,3.262,0,0,1,271.249,30.073Z" transform="translate(-261.373 -20.513)" fill="#f9e4d2"/><path d="M312.388,14.939a.884.884,0,0,1-.571-1.089,1.008,1.008,0,0,1,1.769.815A.885.885,0,0,1,312.388,14.939Z" transform="translate(-294.126 -12.494)" fill="#f9e4d2"/><path d="M242.524,38.643a.776.776,0,1,1,.3-1.191A.885.885,0,0,1,242.524,38.643Z" transform="translate(-239.607 -30.833)" fill="#f9e4d2"/><path d="M254.27,66.717a.617.617,0,1,1,.241-.947A.7.7,0,0,1,254.27,66.717Z" transform="translate(-248.893 -52.739)" fill="#f9e4d2"/><path d="M318.19,45.213a.62.62,0,1,1,.959-.219A.706.706,0,0,1,318.19,45.213Z" transform="translate(-298.703 -36.102)" fill="#f9e4d2"/></g><g transform="translate(190.424 54.421)"><path d="M503.49,71.575s13.188,3.186,21.612-4.958L522.06,57.56s-10.86,7.276-19.05,3.482Z" transform="translate(-503.01 -57.56)" fill="#86c6a5"/><path d="M541.259,80.963a3.26,3.26,0,1,1-4.445,1.223A3.261,3.261,0,0,1,541.259,80.963Z" transform="translate(-528.786 -75.304)" fill="#f9e4d2"/><path d="M514.015,109.842a.776.776,0,1,1-1.218.171A.886.886,0,0,1,514.015,109.842Z" transform="translate(-510.507 -97.813)" fill="#f9e4d2"/><path d="M585.857,92.026a.775.775,0,1,1-.405,1.161A.885.885,0,0,1,585.857,92.026Z" transform="translate(-566.602 -84.025)" fill="#f9e4d2"/><path d="M577.778,64.251a.617.617,0,1,1-.321.922A.7.7,0,0,1,577.778,64.251Z" transform="translate(-560.443 -62.607)" fill="#f9e4d2"/><path d="M512.053,80.317a.621.621,0,1,1-.975.137A.707.707,0,0,1,512.053,80.317Z" transform="translate(-509.193 -75.036)" fill="#f9e4d2"/></g><g transform="translate(98.224 69.048)"><path d="M164.452,304.891s-7.761-11.132-19.464-10.619l-3.728,8.8s12.953,1.753,16.57,10.022Z" transform="translate(-141.26 -294.255)" fill="#86c6a5"/><path d="M178.755,318.883a3.259,3.259,0,1,1,4.138,2.031A3.26,3.26,0,0,1,178.755,318.883Z" transform="translate(-170.081 -309.944)" fill="#f9e4d2"/><path d="M227.144,334.626a.775.775,0,1,1,1.025.681A.884.884,0,0,1,227.144,334.626Z" transform="translate(-207.534 -324.509)" fill="#f9e4d2"/><path d="M160.946,300.99c-.533-.077-.915-.474-.856-.883a.884.884,0,0,1,1.073-.6c.533.077.915.474.856.883A.884.884,0,0,1,160.946,300.99Z" transform="translate(-155.797 -298.299)" fill="#f9e4d2"/><path d="M149.362,328.519c-.424-.061-.726-.376-.679-.7a.7.7,0,0,1,.852-.476c.424.061.726.376.679.7A.7.7,0,0,1,149.362,328.519Z" transform="translate(-146.989 -319.798)" fill="#f9e4d2"/><path d="M209.669,359.5a.621.621,0,1,1,.82.544A.707.707,0,0,1,209.669,359.5Z" transform="translate(-194.049 -343.9)" fill="#f9e4d2"/></g><g transform="translate(0 48.716)"><path d="M4.359,268s13.429-1.942,18.221-12.632l-6.19-7.278S9.011,258.88,0,258.4Z" transform="translate(0 -248.09)" fill="#86c6a5"/><path d="M41.83,281.785a3.261,3.261,0,1,1-3.673,2.787A3.261,3.261,0,0,1,41.83,281.785Z" transform="translate(-29.444 -274.088)" fill="#f9e4d2"/><path d="M24.589,322.44c.533.073.92.465.863.874a.885.885,0,0,1-1.068.61c-.533-.073-.92-.465-.863-.874A.886.886,0,0,1,24.589,322.44Z" transform="translate(-18.16 -305.499)" fill="#f9e4d2"/><path d="M85.124,278.742a.775.775,0,1,1,.055,1.227A.884.884,0,0,1,85.124,278.742Z" transform="translate(-65.571 -271.393)" fill="#f9e4d2"/><path d="M67.076,256.295a.616.616,0,1,1,.043.977A.7.7,0,0,1,67.076,256.295Z" transform="translate(-51.668 -254.133)" fill="#f9e4d2"/><path d="M11.669,296c.426.059.736.371.69.7a.708.708,0,0,1-.854.487c-.426-.059-.736-.371-.69-.7A.708.708,0,0,1,11.669,296Z" transform="translate(-8.349 -285.08)" fill="#f9e4d2"/></g><g transform="translate(58.763 34.166)"><path d="M270.239,196.27s13.429-1.943,18.221-12.632l-6.19-7.278s-7.378,10.79-16.39,10.312Z" transform="translate(-265.88 -176.36)" fill="#86c6a5"/><path d="M307.71,210.047a3.261,3.261,0,1,1-3.673,2.787A3.261,3.261,0,0,1,307.71,210.047Z" transform="translate(-295.324 -202.352)" fill="#f9e4d2"/><path d="M290.469,250.71c.533.073.92.465.863.875a.885.885,0,0,1-1.068.61c-.533-.073-.92-.464-.863-.874A.886.886,0,0,1,290.469,250.71Z" transform="translate(-284.04 -233.769)" fill="#f9e4d2"/><path d="M351,207.011a.775.775,0,1,1,.055,1.227A.884.884,0,0,1,351,207.011Z" transform="translate(-331.451 -199.663)" fill="#f9e4d2"/><path d="M332.956,184.565a.616.616,0,1,1,.043.977A.7.7,0,0,1,332.956,184.565Z" transform="translate(-317.548 -182.404)" fill="#f9e4d2"/><path d="M277.549,224.267c.426.059.736.371.69.7a.708.708,0,0,1-.854.487c-.426-.059-.736-.371-.69-.7A.707.707,0,0,1,277.549,224.267Z" transform="translate(-274.229 -213.35)" fill="#f9e4d2"/></g><g transform="translate(38.802 8.525)"><path d="M127.27,123.321s8.442,10.621,20.093,9.378l3.17-9.014s-13.038-.938-17.164-8.966Z" transform="translate(-127.27 -114.72)" fill="#86c6a5"/><path d="M170.077,149.079a3.261,3.261,0,1,1-4.259-1.769A3.261,3.261,0,0,1,170.077,149.079Z" transform="translate(-155.482 -139.696)" fill="#f9e4d2"/><path d="M138.1,151.535a.776.776,0,1,1-1.066-.615A.885.885,0,0,1,138.1,151.535Z" transform="translate(-134.491 -142.642)" fill="#f9e4d2"/><path d="M205.017,182.324c.535.046.943.414.909.827a.887.887,0,0,1-1.034.667c-.535-.046-.943-.414-.909-.827A.883.883,0,0,1,205.017,182.324Z" transform="translate(-186.512 -166.925)" fill="#f9e4d2"/><path d="M216.254,155.137c.426.036.749.33.722.658a.7.7,0,0,1-.82.531c-.426-.036-.749-.33-.722-.658A.7.7,0,0,1,216.254,155.137Z" transform="translate(-195.356 -145.93)" fill="#f9e4d2"/><path d="M155.075,126.872a.621.621,0,1,1-.852-.492A.707.707,0,0,1,155.075,126.872Z" transform="translate(-147.829 -123.698)" fill="#f9e4d2"/></g></g></svg>