<svg xmlns="http://www.w3.org/2000/svg" xmlns:xlink="http://www.w3.org/1999/xlink" width="200.489" height="171.5" viewBox="0 0 200.489 171.5"><defs><clipPath id="a"><rect width="163" height="170" transform="translate(95 521)" fill="#fff"/></clipPath></defs><g transform="translate(-98.5 -290)"><line x2="135.5" transform="translate(123 460.5)" fill="none" stroke="#473e76" stroke-linecap="round" stroke-width="2"/><line x2="15.5" transform="translate(101.5 460.5)" fill="none" stroke="#473e76" stroke-linecap="round" stroke-width="2"/></g><g transform="translate(-95 -521)" clip-path="url(#a)"><path d="M346.292,395.293c-.345-1.6,1.4-5.139,2.011-6.653.819-2.014.259-4.285-.077-6.432-1.09-6.994.35-14.251-1.181-21.16-.159-.719-.618-1.608-1.337-1.452a1.3,1.3,0,0,0-.651.454c-1.682,1.882-1.967,4.588-2.173,7.106q-.808,9.9-1.62,19.808a4.5,4.5,0,0,1-1.125,3.172C342.578,391.441,344.222,393.455,346.292,395.293Z" transform="matrix(0.966, -0.259, 0.259, 0.966, -209.509, 341.314)" fill="#ffcddd" stroke="#000" stroke-miterlimit="10" stroke-width="1"/><path d="M134.307,286.014a13.464,13.464,0,0,0,2.106,5.472c.922,1.387,2.12,2.636,2.642,4.214,1.037,3.131-.845,6.473-.724,9.766.1,2.8,1.652,5.378,1.888,8.172.221,2.636-.742,5.21-1.69,7.678a31.319,31.319,0,0,1-3.958,7.96,30.65,30.65,0,0,1-3,3.242,12.541,12.541,0,0,1-4.176,3.072c-3.154,1.175-6.741-.3-10.013.477a9.151,9.151,0,0,1-1.97.4c-1.57.009-2.848-1.29-3.584-2.674a4.786,4.786,0,0,1-.3-4.582,2.953,2.953,0,0,0-3.254-1.113,18.3,18.3,0,0,0-3.428,1.437,17.75,17.75,0,0,1-9.25.854,13.653,13.653,0,0,1-4.394-1.14c-2.194-1.09-3.814-3.128-6.025-4.179-3.446-1.643-7.675-.616-11.191-2.1-4.138-1.746-6.19-6.55-6.441-11.035a11.286,11.286,0,0,1,1.1-6.081,18.76,18.76,0,0,1,3.566-4.064,22.322,22.322,0,0,0,6.008-9.206,17.611,17.611,0,0,1,1.531-4.435,11.256,11.256,0,0,1,2.438-2.509q5.138-4.285,10.272-8.573a8.075,8.075,0,0,1,4.624-1.944,18.954,18.954,0,0,1,5.831.306,68.2,68.2,0,0,1,20.98,6.859c2.765,1.484,5.584,3.257,8.72,3.239a1.774,1.774,0,0,1,1.131.221C134.051,285.99,134.693,285.946,134.307,286.014Z" transform="matrix(0.966, -0.259, 0.259, 0.966, -8.282, 349.165)" fill="#ff8964"/><g transform="matrix(0.966, -0.259, 0.259, 0.966, 130.042, 597.72)"><path d="M104.811,278.284a24.766,24.766,0,0,1,4.046.421,68.056,68.056,0,0,1,20.889,6.827c.324.174.648.35.975.53,2.465,1.349,5.015,2.748,7.845,2.748h.242a1.232,1.232,0,0,1,.751.159,1.318,1.318,0,0,0,.474.215,13.849,13.849,0,0,0,2.129,5.454c.274.409.571.81.86,1.2a10.748,10.748,0,0,1,1.749,2.945c.586,1.77.2,3.611-.212,5.557a17.156,17.156,0,0,0-.527,4.129,16.4,16.4,0,0,0,.966,4.35,17.578,17.578,0,0,1,.922,3.834c.218,2.621-.786,5.239-1.673,7.548a31.111,31.111,0,0,1-3.917,7.887,30.428,30.428,0,0,1-2.977,3.21,12.388,12.388,0,0,1-4.073,3.007,8.263,8.263,0,0,1-2.951.457c-.754,0-1.54-.059-2.3-.118s-1.576-.118-2.362-.118a10.222,10.222,0,0,0-2.365.244c-.183.044-.365.094-.542.141a5.276,5.276,0,0,1-1.375.253c-1.832,0-3-1.929-3.31-2.518a4.462,4.462,0,0,1-.3-4.294l.085-.144-.08-.147a2.887,2.887,0,0,0-2.668-1.355,4.444,4.444,0,0,0-.9.094,10.374,10.374,0,0,0-2.453.963c-.339.168-.686.342-1.031.492a14.179,14.179,0,0,1-5.737,1.057,27.032,27.032,0,0,1-3.357-.227,13.46,13.46,0,0,1-4.3-1.113,16.221,16.221,0,0,1-2.9-2.029A15.966,15.966,0,0,0,91.3,327.79a15.905,15.905,0,0,0-5.852-1.149,16.741,16.741,0,0,1-5.351-.957,9.37,9.37,0,0,1-4.532-4.359,15.668,15.668,0,0,1-1.726-6.42,10.831,10.831,0,0,1,1.06-5.922,14.936,14.936,0,0,1,2.883-3.384c.212-.2.424-.409.633-.613a22.312,22.312,0,0,0,6.084-9.33c.121-.4.23-.816.333-1.213A10.874,10.874,0,0,1,86,291.3a11.066,11.066,0,0,1,2.38-2.441l10.272-8.573a7.826,7.826,0,0,1,4.476-1.879,11.286,11.286,0,0,1,1.685-.118m0-.294a12.233,12.233,0,0,0-1.735.118,8.083,8.083,0,0,0-4.624,1.944q-5.138,4.285-10.272,8.573a11.321,11.321,0,0,0-2.438,2.509,17.61,17.61,0,0,0-1.531,4.435,22.341,22.341,0,0,1-6.008,9.206,18.841,18.841,0,0,0-3.566,4.064,11.286,11.286,0,0,0-1.1,6.081c.247,4.485,2.3,9.289,6.441,11.035,3.516,1.484,7.745.459,11.191,2.1,2.212,1.054,3.828,3.092,6.025,4.179a13.658,13.658,0,0,0,4.394,1.143,27.741,27.741,0,0,0,3.4.23,14.569,14.569,0,0,0,5.855-1.084,18.3,18.3,0,0,1,3.428-1.437,4.24,4.24,0,0,1,.845-.088,2.63,2.63,0,0,1,2.409,1.2,4.786,4.786,0,0,0,.3,4.582c.733,1.381,2.008,2.674,3.569,2.674h.015a8.97,8.97,0,0,0,1.97-.4,10.009,10.009,0,0,1,2.3-.236c1.549,0,3.128.236,4.662.236a8.666,8.666,0,0,0,3.054-.474,12.581,12.581,0,0,0,4.176-3.072,30.35,30.35,0,0,0,3-3.242,31.318,31.318,0,0,0,3.958-7.96c.948-2.468,1.911-5.045,1.69-7.678-.233-2.795-1.782-5.372-1.888-8.172-.124-3.292,1.758-6.638.724-9.766-.524-1.581-1.72-2.83-2.642-4.214A13.506,13.506,0,0,1,140.307,289c.386-.068-.256-.024-.562-.265a1.464,1.464,0,0,0-.934-.221h-.239c-3.122,0-5.928-1.764-8.679-3.239a68.28,68.28,0,0,0-20.98-6.859,24.458,24.458,0,0,0-4.1-.43Z" transform="translate(-73.512 -277.99)" stroke="#000" stroke-width="0.5"/></g><path d="M53.278,144.755a2.4,2.4,0,0,0,.071,1.526c.474.907,1.77.833,2.783.683a29.12,29.12,0,0,1,6.941-.188,1.851,1.851,0,0,0,.96-.077,1.805,1.805,0,0,0,.775-1.287q.49-1.9.978-3.8a4.515,4.515,0,0,0,.047-3.1,4.262,4.262,0,0,0-2.226-1.746,12.775,12.775,0,0,0-4.836-1.343C53.378,135.272,53.985,140.674,53.278,144.755Z" transform="matrix(0.966, -0.259, 0.259, 0.966, 26.966, 441.674)" fill="#ffcddd" stroke="#000" stroke-miterlimit="10" stroke-width="1"/><path d="M108.459,257.021a27.407,27.407,0,0,0,3.7,2.073,1.286,1.286,0,0,1,.9,1.876q-4.5,16.5-9.9,32.737c-1.8,5.413-4.526,15.55-12.248,14.8a10.423,10.423,0,0,1-4.42-1.785c-6.09-3.826-10.148-9.356-13.8-15.426-1.328-2.206-2.524-4.426-3.852-6.632A175.239,175.239,0,0,1,55.687,326.67a5.468,5.468,0,0,1-2,2.671,5.523,5.523,0,0,1-3.107.395c-8.3-.554-16.7-1.119-24.673-3.493S10.281,319.505,5.493,312.7a9.663,9.663,0,0,1-1.729-3.563,11.669,11.669,0,0,1,.492-5.057c3.935-15.806,8.193-31.989,12.127-47.794-6.09-10.944-9.144-23.274-12.133-35.434A131.007,131.007,0,0,1,.707,200.339a65.384,65.384,0,0,1,2.542-23.9c1.048-3.51,1.361-7.975,4.839-9.627,4.205-2,13.323-3.189,17.826-1.667,4.7,1.593,1,7.471-.1,10.788-3.887,11.762-6.155,24.744-.842,36.3Q29,221.014,33.04,229.792c1.26,2.742,1.581,3.611,4.1,4.918a54.909,54.909,0,0,0,8.711,3.157c2.936.928,5.9,1.794,8.814,2.751A77.49,77.49,0,0,1,62.9,243.76a39.23,39.23,0,0,1,7.38,4.317c5.958,4.518,7.3,12.066,11.226,18.109,2.244,3.446,5.039,6.579,6.662,10.36,3.151-7.657,7.153-15.058,10.737-22.526.289-.6.654-1.26,1.3-1.422a2.218,2.218,0,0,1,1.408.271A50.8,50.8,0,0,1,108.459,257.021Z" transform="matrix(0.966, -0.259, 0.259, 0.966, 57.57, 412.266)" fill="#fdcd76" stroke="#000" stroke-miterlimit="10" stroke-width="1"/><g transform="matrix(0.966, -0.259, 0.259, 0.966, 102.497, 529.339)"><path d="M59.674,67.993a1.575,1.575,0,0,1-.739-.18l-14.269-7.28a1.632,1.632,0,0,1-.71-2.2l14-27.444A1.626,1.626,0,0,1,59.414,30a1.575,1.575,0,0,1,.739.18l14.268,7.28a1.636,1.636,0,0,1,.713,2.2l-14,27.444A1.631,1.631,0,0,1,59.674,67.993Z" transform="translate(-43.625 -29.853)" fill="#fff"/><path d="M59.053,29.5v.295a1.5,1.5,0,0,1,.674.162L74,37.236a1.483,1.483,0,0,1,.739.866,1.462,1.462,0,0,1-.091,1.134l-14,27.444a1.48,1.48,0,0,1-1.325.81,1.5,1.5,0,0,1-.674-.162l-14.268-7.28a1.488,1.488,0,0,1-.648-2l14-27.444a1.48,1.48,0,0,1,1.325-.81V29.5m0,0a1.778,1.778,0,0,0-1.587.972l-14,27.447a1.778,1.778,0,0,0,.777,2.394l14.269,7.28a1.779,1.779,0,0,0,2.394-.777l14-27.444a1.778,1.778,0,0,0-.777-2.394L59.863,29.7a1.776,1.776,0,0,0-.81-.2Z" transform="translate(-43.267 -29.5)"/></g><path d="M63.045,70.7,51.424,64.774a1.783,1.783,0,0,1-.777-2.394L63.071,38.034a1.783,1.783,0,0,1,2.394-.777l11.621,5.928a1.783,1.783,0,0,1,.777,2.394L65.442,69.925A1.782,1.782,0,0,1,63.045,70.7Z" transform="matrix(0.966, -0.259, 0.259, 0.966, 46.791, 508.2)" fill="#081d3f"/><path d="M171.785,420.275c-.312,3.775-2.279,5.858-4.353,6.679a8.356,8.356,0,0,1-9.91-3.157c-2.877-4.188-3.063-10.237-3.063-10.237h0c2.936.928,5.9,1.793,8.814,2.751a77.5,77.5,0,0,1,8.231,3.142Z" transform="matrix(0.966, -0.259, 0.259, 0.966, -92.833, 270.624)" fill="#ff86ac" stroke="#000" stroke-miterlimit="10" stroke-width="1"/><path d="M163.8,387.446a9.875,9.875,0,0,0,.692,3.387c.763,2.191,1.705,4.338,3.069,5.522a3.367,3.367,0,0,0,4.644-.012,9.421,9.421,0,0,0,2.58-6.308c.068-1.113-.006-2.238.062-3.351.171-2.78,1.2-5.7.409-8.175a6.287,6.287,0,0,0-.981-1.829c-1.973-2.709-4.865-3.864-6.553-.156-.727,1.6-1.072,3.652-1.811,5.292C165.118,383.579,163.831,385.049,163.8,387.446Z" transform="matrix(0.966, -0.259, 0.259, 0.966, -92.003, 299.171)" fill="#ffcddd"/><path d="M167.718,381.16c-.727,1.6-1.072,3.652-1.811,5.292-.792,1.761-2.076,3.231-2.109,5.628a9.875,9.875,0,0,0,.692,3.387c.763,2.191,1.705,4.338,3.069,5.522" transform="matrix(0.966, -0.259, 0.259, 0.966, -93.28, 294.408)" fill="none" stroke="#000" stroke-linecap="round" stroke-linejoin="round" stroke-miterlimit="10" stroke-width="1"/><path d="M163.451,305.755c12.9,16.265,38.576-13.945,31.238-26-4.45-10.982-18.792-9.041-28.148-5.816-5.672,4.906-7.663,15.134-6.812,22.544A18.153,18.153,0,0,0,163.451,305.755Z" transform="matrix(0.966, -0.259, 0.259, 0.966, -70.34, 368.418)" fill="#ffcddd"/><path d="M233.48,307.663a12.978,12.978,0,0,0,6.824,3.64,4.815,4.815,0,0,0,2.179-.071,4.39,4.39,0,0,0,2.553-2.595,8.9,8.9,0,0,0-.692-7.539,19.121,19.121,0,0,0-5.263-5.722,9.815,9.815,0,0,0-3.581-1.988c-2.544-.624-7.954.689-8.161,3.935C227.122,300.748,231.183,305.448,233.48,307.663Z" transform="matrix(0.966, -0.259, 0.259, 0.966, -120.521, 365.925)" fill="#ff8964"/><path d="M158.775,297.342c-2.6.4-5.607.621-7.492-1.21a2.265,2.265,0,0,1-.783-1.576,2.745,2.745,0,0,1,.509-1.366,14.532,14.532,0,0,1,7.666-5.9,18.438,18.438,0,0,1,9.739-.427c3.31.716,7.675,4.7,3.51,7.433C168.467,296.564,162.742,296.726,158.775,297.342Z" transform="matrix(0.966, -0.259, 0.259, 0.966, -66.916, 356.551)" fill="#ff8964"/><ellipse cx="5.657" cy="4.568" rx="5.657" ry="4.568" transform="matrix(-0.208, -0.978, 0.978, -0.208, 156.252, 614.349)" fill="#ffcddd"/><ellipse cx="5.657" cy="4.568" rx="5.657" ry="4.568" transform="translate(184.643 614.248) rotate(-83)" fill="#ffcddd"/><g transform="matrix(0.966, -0.259, 0.259, 0.966, 159.116, 602.067)"><path d="M170.471,328.879l-1.679-.654a5.864,5.864,0,0,1-3.337-7.6l1.1-2.83,12.61,4.909-1.1,2.83A5.864,5.864,0,0,1,170.471,328.879Z" transform="translate(-165.053 -317.8)" fill="#081d3f"/><path d="M221.191,348.629l-1.679-.654a5.864,5.864,0,0,1-3.337-7.6l1.1-2.83,12.61,4.909-.713,1.275C228,346.756,224.21,349.8,221.191,348.629Z" transform="translate(-200.836 -331.734)" fill="#081d3f"/><rect width="2.494" height="1.069" transform="translate(13.344 6.895) rotate(21.274)" fill="#081d3f"/></g><path d="M58.076,64.184c.692-.174,1.558-.206,1.973.371a1.814,1.814,0,0,1,.218,1.2,17.532,17.532,0,0,1-2.309,6.485c-.76,1.475-1.667,3.086-3.248,3.6a1.84,1.84,0,0,1-1.729-.206,2.35,2.35,0,0,1-.627-1.7C52.036,69.2,53.217,65.406,58.076,64.184Z" transform="matrix(0.966, -0.259, 0.259, 0.966, 40.597, 490.133)" fill="#ffcddd" stroke="#000" stroke-miterlimit="10" stroke-width="1"/><path d="M152.948,279.98c-3.03,2.621-5.009,6.765-6.067,11.182-.018,0-.035-.006-.053-.006-2.518-.138-4.7,2.276-4.874,5.4-.171,3.086,1.69,5.7,4.173,5.89,0,.027.006.053.009.082a18.172,18.172,0,0,0,3.725,9.274" transform="matrix(0.966, -0.259, 0.259, 0.966, -59.912, 359.368)" fill="none" stroke="#000" stroke-linecap="round" stroke-linejoin="round" stroke-miterlimit="10" stroke-width="1"/><g transform="matrix(0.966, -0.259, 0.259, 0.966, 159.066, 571.653)"><path d="M218.984,236.673c-.489-.044-1-.1-1.508-.165-.259-.032-.515-.068-.775-.1s-.5-.074-.751-.112a6.5,6.5,0,0,0-2.636-.43,13.987,13.987,0,0,1-1.632-.1l-.127-.009c-.321-.024-.645-.047-.969-.074a20.94,20.94,0,0,1-5.551-1.043.181.181,0,0,0-.038-.009,9.762,9.762,0,0,1-2.112-.409,25.741,25.741,0,0,1-3.5-1.467,20.4,20.4,0,0,0-4.736-1.8c-.383-.153-.786-.318-1.178-.489a3.209,3.209,0,0,1-.736-.73,3.879,3.879,0,0,1-.595-2.689,8.065,8.065,0,0,1,.171-1.042c1.29-5.534,4.7-7.5,7.466-7.5.221,0,.445.012.669.032a9.847,9.847,0,0,1,1.207.159,10.7,10.7,0,0,1,1.2.3c.353.085.713.168,1.081.253l.465.106c4.043.922,9.074,2.067,11.98,4.847a8.7,8.7,0,0,1,.822.9c1.425,2.268,1.511,5.03,1.6,7.7.015.507.032,1.01.056,1.508l.006.082c.026.292.053.58.074.863.024.324.038.618.047.9a.7.7,0,0,0,.135.418C219.084,236.606,219.031,236.641,218.984,236.673Z" transform="translate(-191.97 -218.353)" fill="#fece76"/><path d="M199.432,218.294c.215,0,.436.012.663.032a10.053,10.053,0,0,1,1.184.156,10.771,10.771,0,0,1,1.187.3.2.2,0,0,0,.021.006c.345.082.7.165,1.072.25l.468.106c4.026.919,9.035,2.059,11.913,4.809a8.525,8.525,0,0,1,.8.878c1.4,2.244,1.49,4.983,1.573,7.628.015.5.032,1.01.056,1.523l.009.1c.026.283.05.563.071.836.024.327.038.618.047.9a.945.945,0,0,0,.08.348c-.462-.044-.939-.094-1.422-.156-.259-.032-.515-.068-.772-.1s-.486-.071-.73-.109a6.614,6.614,0,0,0-2.674-.436,14.371,14.371,0,0,1-1.617-.1.037.037,0,0,1-.018,0l-.141-.012-.942-.071a20.841,20.841,0,0,1-5.513-1.034.36.36,0,0,0-.077-.018,9.643,9.643,0,0,1-2.079-.4,25.756,25.756,0,0,1-3.481-1.458,20.6,20.6,0,0,0-4.744-1.8c-.386-.15-.769-.309-1.146-.474a3.083,3.083,0,0,1-.7-.692,3.733,3.733,0,0,1-.565-2.589,7.678,7.678,0,0,1,.168-1.022,11.85,11.85,0,0,1,2.506-5.115,6.261,6.261,0,0,1,4.812-2.274m0-.295c-4.176,0-6.718,3.79-7.61,7.619a8.148,8.148,0,0,0-.174,1.063,4.023,4.023,0,0,0,.621,2.789,3.357,3.357,0,0,0,.8.78c.4.177.8.342,1.207.5,2.933.586,5.445,2.412,8.222,3.257a9.693,9.693,0,0,0,2.144.415,20.965,20.965,0,0,0,5.59,1.048c.365.029.727.056,1.087.082,1.634.218,2.918-.074,4.244.527.256.041.515.08.775.115l.777.106c.518.065,1.04.124,1.564.168.56-.377.138-.115.109-.669-.006-.295-.024-.6-.047-.9s-.053-.621-.08-.942c-.156-3.142.044-6.544-1.682-9.294a8.5,8.5,0,0,0-.836-.922c-3.051-2.916-8.458-4.061-12.516-4.989-.368-.085-.727-.168-1.069-.25a11.3,11.3,0,0,0-1.216-.306,9.642,9.642,0,0,0-1.222-.159,6.868,6.868,0,0,0-.686-.035Z" transform="translate(-191.622 -218)" fill="#fece76"/></g><g transform="matrix(0.966, -0.259, 0.259, 0.966, 148.952, 584.482)"><path d="M186.613,273.052a41.36,41.36,0,0,1-8.411-1.01A75.471,75.471,0,0,1,160.19,265.7a53.222,53.222,0,0,1-8.95-5.289c-1-.766-3.661-2.795-3.566-4.3.18-2.913,4.494-3.139,5.81-3.139.127,0,.25,0,.371.006.565.015,1.166.059,1.805.1.863.059,1.758.124,2.633.124,1.434,0,3.469-.15,4.715-1.443l21.089,5.8c1.316.571,2.754,1.207,4.223,1.938.6.3,1.228.542,1.835.777a15.962,15.962,0,0,1,2.433,1.11c.872.524,1.72,1.1,2.542,1.661.772.524,1.567,1.066,2.4,1.576,1.308.8,1.985,1.561,2.073,2.321a2.347,2.347,0,0,1-.9,1.885c-1.581,1.558-3.8,2.447-6.323,3.366a17.184,17.184,0,0,1-5.763.86Z" transform="translate(-147.524 -251.592)" fill="#fece76"/><path d="M162.694,251.52l20.986,5.769c1.328.577,2.757,1.207,4.217,1.932.61.3,1.237.548,1.847.783a15.566,15.566,0,0,1,2.412,1.1c.869.521,1.714,1.1,2.533,1.655.772.524,1.57,1.069,2.4,1.579,1.266.775,1.92,1.5,2,2.212a2.206,2.206,0,0,1-.857,1.761c-1.561,1.537-3.764,2.418-6.27,3.331a16.837,16.837,0,0,1-5.71.857,41.1,41.1,0,0,1-8.381-1.007,75.262,75.262,0,0,1-17.976-6.332,53.135,53.135,0,0,1-8.926-5.275c-.889-.68-3.6-2.748-3.51-4.173.171-2.783,4.379-3,5.666-3,.124,0,.247,0,.365.006.562.015,1.163.059,1.8.1.866.062,1.761.124,2.642.124,1.437,0,3.472-.147,4.759-1.422m-.088-.33c-1.081,1.181-2.821,1.464-4.668,1.464-1.508,0-3.086-.188-4.432-.224-.121,0-.244-.006-.374-.006-2.382,0-5.8.621-5.958,3.278-.094,1.546,2.453,3.531,3.625,4.426a52.8,52.8,0,0,0,8.976,5.3,75.854,75.854,0,0,0,18.047,6.355,41.8,41.8,0,0,0,8.443,1.013,17.183,17.183,0,0,0,5.81-.875c2.244-.819,4.7-1.749,6.376-3.4,1.74-1.717.954-3.116-1.2-4.435-1.714-1.051-3.251-2.221-4.939-3.237-1.355-.813-2.863-1.193-4.279-1.894-1.449-.719-2.839-1.337-4.25-1.947l-21.18-5.825Z" transform="translate(-147.171 -251.19)" fill="#fece76"/></g><g transform="matrix(0.966, -0.259, 0.259, 0.966, 158.347, 579.519)"><path d="M210.625,254.5c-.512,0-1.043-.038-1.555-.077l-.133-.009c-6-.43-12.122-2.288-17.873-4.152l-.262-.085c-1.581-.512-3.216-1.043-4.759-1.679-.141-.059-.345-.133-.58-.218-.842-.3-2.25-.813-2.518-1.293a1.872,1.872,0,0,1,.339-1.617c.5-.848,1.39-1.705,2.135-1.705a.915.915,0,0,1,.2.024l.109.1a.153.153,0,0,0,.041.065c.062.056.127.112.191.168a.156.156,0,0,0,.062.032l.227.206a4.246,4.246,0,0,0,.763.489c3.558,1.717,7.954,2.674,11.833,3.519.456.1.907.2,1.352.3.736.162,1.5.359,2.232.548a27.422,27.422,0,0,0,5.59,1.034c.056,0,.112,0,.165,0a9.215,9.215,0,0,0,1.667-.2,9.055,9.055,0,0,1,1.614-.2,3.534,3.534,0,0,1,.474.029,2.339,2.339,0,0,1,1.805,1.947,2.025,2.025,0,0,1-.627,2.215A4.616,4.616,0,0,1,210.625,254.5Z" transform="translate(-182.712 -243.523)" fill="#071a3f"/><path d="M185.052,243.464a.635.635,0,0,1,.133.012l.053.05a.273.273,0,0,0,.068.088c.062.053.121.109.186.162l.009.009a1.484,1.484,0,0,0,.348.283,4.171,4.171,0,0,0,.736.462c3.575,1.723,7.978,2.683,11.865,3.531.456.1.907.2,1.352.3.733.162,1.493.356,2.229.545a27.43,27.43,0,0,0,5.622,1.04c.056,0,.115,0,.171,0a9.44,9.44,0,0,0,1.693-.206,8.826,8.826,0,0,1,1.587-.2,3.8,3.8,0,0,1,.456.027,2.2,2.2,0,0,1,1.682,1.832,1.941,1.941,0,0,1-.563,2.059,4.457,4.457,0,0,1-2.418.545c-.509,0-1.037-.038-1.546-.074l-.133-.009c-5.987-.43-12.1-2.282-17.838-4.147l-.274-.088c-1.576-.509-3.2-1.04-4.736-1.67-.147-.062-.35-.135-.589-.221-.769-.277-2.2-.792-2.441-1.228a1.768,1.768,0,0,1,.339-1.47,3.025,3.025,0,0,1,2.008-1.634m0-.294c-1.369,0-3.148,2.568-2.6,3.54.374.666,2.486,1.293,3.172,1.576,1.632.674,3.351,1.222,5.033,1.767,5.819,1.888,11.895,3.728,17.909,4.158.56.041,1.137.085,1.7.085a4.8,4.8,0,0,0,2.574-.589c1.449-.907.751-4.185-1.24-4.432a3.967,3.967,0,0,0-.492-.029c-1.1,0-2.176.4-3.281.4-.053,0-.106,0-.159,0-2.533-.094-5.233-1.01-7.8-1.579-4.276-.945-9.2-1.9-13.152-3.8a4.316,4.316,0,0,1-.73-.465l.018.015a1.266,1.266,0,0,1-.306-.253c-.065-.056-.127-.112-.188-.168a1.16,1.16,0,0,1,.188.168c.094.079.188.159.289.239l-.654-.592a1.137,1.137,0,0,0-.28-.035Z" transform="translate(-182.348 -243.17)" fill="#071a3f"/></g><path d="M197.068,370.97c.348,1.4-3.092,4.762-5.018.8" transform="matrix(0.966, -0.259, 0.259, 0.966, -110.671, 306.511)" fill="none" stroke="#000" stroke-linecap="round" stroke-linejoin="round" stroke-miterlimit="10" stroke-width="1"/><circle cx="1.599" cy="1.599" r="1.599" transform="matrix(0.966, -0.259, 0.259, 0.966, 179.791, 614.363)" fill="#ff8964"/><circle cx="1.599" cy="1.599" r="1.599" transform="matrix(0.966, -0.259, 0.259, 0.966, 163.551, 612.922)" fill="#ff8964"/><path d="M200.191,352.4a1.492,1.492,0,0,0-.621,1.514" transform="matrix(0.966, -0.259, 0.259, 0.966, -111.868, 322.465)" fill="none" stroke="#000" stroke-linecap="round" stroke-linejoin="round" stroke-miterlimit="10" stroke-width="1"/><path d="M73.363,550.66a50.671,50.671,0,0,0,9.453,33.629" transform="matrix(0.966, -0.259, 0.259, 0.966, -62.493, 162.358)" fill="none" stroke="#000" stroke-linecap="round" stroke-linejoin="round" stroke-miterlimit="10" stroke-width="1"/><path d="M108.79,632.29a61.092,61.092,0,0,0,6.506,10.52" transform="matrix(0.966, -0.259, 0.259, 0.966, -101.65, 113.229)" fill="none" stroke="#000" stroke-linecap="round" stroke-linejoin="round" stroke-miterlimit="10" stroke-width="1"/><path d="M40.1,299.52q-4.378.967-8.755,1.932" transform="matrix(0.966, -0.259, 0.259, 0.966, 11.893, 325.856)" fill="none" stroke="#000" stroke-linecap="round" stroke-linejoin="round" stroke-miterlimit="10" stroke-width="1"/><path d="M296.34,558.47a40.268,40.268,0,0,1,2.235,12.928" transform="matrix(0.966, -0.259, 0.259, 0.966, -215.978, 197.78)" fill="none" stroke="#000" stroke-linecap="round" stroke-linejoin="round" stroke-miterlimit="10" stroke-width="1"/><g transform="matrix(0.927, 0.375, -0.375, 0.927, 119.166, 534.813)"><g transform="translate(0 0)"><circle cx="6.702" cy="6.702" r="6.702" transform="translate(0 0)" fill="none"/><circle cx="6.187" cy="6.187" r="6.187" transform="translate(0.516 0.516)" fill="none" stroke="#ff0f0f" stroke-width="1.5"/></g><path d="M9.166,0,0,8.414" transform="translate(2.367 2.879)" fill="none" stroke="#ff0f0f" stroke-width="1.5"/></g><path d="M108.523,96.955c-.186-.377-.371-.822-.775-.945a1.038,1.038,0,0,0-.984.348,2.232,2.232,0,0,0-.2,2.839c.368.486.981.916.91,1.523a1.771,1.771,0,0,1-.515.869,6.519,6.519,0,0,0-1.269,5.908,2.517,2.517,0,0,0,.448.934c.713.845,2.091.674,3.042.118a8.547,8.547,0,0,0,2.983-3.454c.742-1.366,1.581-3.643.25-4.945-.562-.551-1.478-.713-2.123-1.157A5.371,5.371,0,0,1,108.523,96.955Z" transform="matrix(0.966, -0.259, 0.259, 0.966, -1.444, 478.093)" fill="#ffcddd" stroke="#000" stroke-miterlimit="10" stroke-width="1"/></g><path d="M392.577,103.109c-5.244,5.326-13.013,7.1-20.355,8.481-16.357,3.087-34.512,5.515-50.389-.814a26.092,26.092,0,0,1-12.3,2.021,34.53,34.53,0,0,0,5.079-6.029c-.262.4-3.78-4.861-4-5.462-5.462-14.946,2.695-30.6,13.788-40.541,25.977-23.287,78.968-14.52,74.558,27.256C398.378,93.562,396.551,99.067,392.577,103.109Z" transform="translate(-198.734 -41.318)" fill="#9da2a6"/><text transform="translate(125.652 34.251)" fill="#fff" font-size="10" font-family="Lato-Medium, Lato" font-weight="500"><tspan x="0" y="0">User’s wont</tspan><tspan x="0" y="10">notice if you</tspan><tspan x="0" y="20">blocked them.</tspan></text></svg>