<svg xmlns="http://www.w3.org/2000/svg" xmlns:xlink="http://www.w3.org/1999/xlink" width="117" height="117" viewBox="0 0 117 117"><defs><clipPath id="a"><circle cx="58.5" cy="58.5" r="58.5" transform="translate(0.159 0.159)" fill="#fff" stroke="#707070" stroke-width="1"/></clipPath></defs><g transform="translate(-0.159 -0.159)" clip-path="url(#a)"><g transform="translate(-24.951 2.537)"><path d="M58.862,78.035c7.3-3.634,15.889-5.325,21.254-11.262,1.87-2.073,1.243-4.777.588-7.629-.723-3.137-3-10.127-4.075-13.165a110.508,110.508,0,0,0-7.736-17.1c-4.658-8.332-10.1-17.3-18.014-22.843A33.665,33.665,0,0,0,29.59.067c-7.5.481-15.925,3.288-20.94,8.88C3.177,15.047.56,23.319.088,31.5S1.12,47.849,3.034,55.82a94.425,94.425,0,0,0,6,18.24c1.521,3.233,10.79,23.347,13.586,25.571,3.92,3.113,7.946-3.447,12.907-4.106S39.431,87.3,43.875,85c1.052-3.225,1.676-2.736,4.706-4.257,1.457-.731,2.994-1.16,4.472-1.851,1.616-.754.222-2.347,1.978-2.665S57.317,77.141,58.862,78.035Z" transform="translate(64.786 1.427) rotate(21)" fill="#071c3f"/><path d="M58.862,78.035c7.3-3.634,15.889-5.325,21.254-11.263,1.87-2.073,1.243-4.777.588-7.629-.723-3.137-3-10.127-4.075-13.165a110.5,110.5,0,0,0-7.736-17.1c-4.658-8.332-10.1-17.3-18.014-22.843A33.665,33.665,0,0,0,29.59.067c-7.5.481-15.925,3.288-20.94,8.88C3.177,15.047.56,23.319.088,31.5S1.12,47.849,3.034,55.82a94.434,94.434,0,0,0,6,18.24c1.521,3.233,10.79,23.347,13.586,25.571,3.92,3.114,7.947-3.447,12.907-4.106S39.431,87.3,43.875,85c1.052-3.225,1.676-2.736,4.706-4.257,1.457-.731,2.994-1.16,4.472-1.851,1.616-.755.222-2.347,1.978-2.665S57.317,77.141,58.862,78.035Z" transform="translate(66.609 0) rotate(21)" fill="none" stroke="#000" stroke-linecap="round" stroke-linejoin="round" stroke-miterlimit="10" stroke-width="1"/><path d="M30.212,0C40.966,16.187,50.274,35.42,57.995,53.334,62.8,64.489,67.021,75.978,73.2,86.4c2.689,4.535,12.458,14.912,10.873,19.963-.878,2.792-6.624,5.135-8.8,7.041-7.228,6.322-18.2,6.362-26.631,10.854-12.327-9.908-24-21.679-32.358-35.257C2.437,66.491-.982,39.228.225,12.645,8.27,7.093,17.528,2.033,27.118.544Z" transform="translate(75.136 73.915) rotate(21)" fill="#faeebd" stroke="#000" stroke-linecap="round" stroke-linejoin="round" stroke-miterlimit="10" stroke-width="1"/><path d="M22.836,0a16.063,16.063,0,0,0-6.009,3.924A128.474,128.474,0,0,0,5.756,15.345c-.282.33-.568.806-.306,1.152A204.039,204.039,0,0,0,.411,50.185c-3-8.868,11.413,46.781,12.263,44.589a103.352,103.352,0,0,1,7.549-15.488c-.862,1.45,1.862,9.213,2.208,11.076.743,4,1.442,8,2.2,12,.766,4.047,1.35,8.26,2.355,12.327A9.629,9.629,0,0,0,38.4,121.779,150.437,150.437,0,0,0,79.137,106.35C82.274,104.6,58.482,72.2,56.644,69.541,48.03,57.083,40.3,43.835,35.679,29.336,32.542,19.479,29.147,8.2,22.836,0Z" transform="translate(43.723 79.996) rotate(21)" fill="#ff87ac" stroke="#000" stroke-miterlimit="10" stroke-width="1"/><path d="M38.529,101.611a64.064,64.064,0,0,1,3.51,5.619c2.772,5.087,4.75,11.874,8.51,16.294,3.669,4.309,6.58.735,10.849-1.537a155.427,155.427,0,0,1,19.157-8.352,9.036,9.036,0,0,0,5.139-12.1C73.965,74.825,58.211,49.782,44.562,24.064c-1.465-2.764.56,3.078,0,0-.453-2.5,19.105,36.973,19.3,34.444,1.029-12.915,16.35-6.522,16.692-3.139.228,2.251-5.937-2.224-11.663-11.454-.377-.612-4.495-7.9-5.029-8.6L57,22.285c-9.36-9.474-5.3-10.318-10.816-9.844-4.363.647-11.275-2.288-11.275-2.288S23.5,7.2,18.084,6.839c-7.954.385-13.613.967-18.084,2C2.184,14.7,3.666,22.074,6.179,27.8Q14.2,46.061,22.227,64.321c3.161,7.2,4.023,15.158,7.045,22.406C31.516,92.116,35.205,96.766,38.529,101.611Z" transform="translate(101.07 73.813) rotate(21)" fill="#ff88ac" stroke="#000" stroke-miterlimit="10" stroke-width="1"/><path d="M2.824,15.825a2.628,2.628,0,0,0,.441,1.545,1.883,1.883,0,0,0,.628.417,24.3,24.3,0,0,0,5.441,1.847c2.1.441,4.551.469,6.024-1.279a8.641,8.641,0,0,0,1.3-2.526,7.946,7.946,0,0,0,.723-3.1c-.1-2.319-2.065-3.912-2.951-6.009-.731-1.728-.747-3.884-1.922-5.266C11.307.047,9.373-.021,7.645,0,4.925.043.755,1.373.076,5-.516,8.124,2.538,12.445,2.824,15.825Z" transform="translate(77.787 66.702) rotate(21)" fill="#ffcddd"/><ellipse cx="21.123" cy="26.107" rx="21.123" ry="26.107" transform="translate(62.22 24.926) rotate(1)" fill="#ffcddd"/><ellipse cx="6.159" cy="7.629" rx="6.159" ry="7.629" transform="translate(98.937 48.836) rotate(7)" fill="#ffcddd"/><path d="M0,35.116c.778,2.208,1.906,4.527,2.073,6.517a2.629,2.629,0,0,0,.441,1.545,1.886,1.886,0,0,0,.628.417,24.292,24.292,0,0,0,5.441,1.847c2.1.441,4.551.469,6.024-1.279a8.636,8.636,0,0,0,1.3-2.526,7.946,7.946,0,0,0,.723-3.1c-.1-2.319-2.065-3.912-2.951-6.009a11.67,11.67,0,0,1-.532-1.7c4.206-3.7,6.759-9.384,7.2-15.75a5.16,5.16,0,0,0,1.612-.135c3.3-.842,5.123-4.833,4.083-8.915S21.485-.685,18.188.157a4.546,4.546,0,0,0-.512.167" transform="translate(87.737 42.878) rotate(21)" fill="none" stroke="#000" stroke-linecap="round" stroke-linejoin="round" stroke-miterlimit="10" stroke-width="1"/><path d="M59.394,112.732c-.087.083-.179.163-.266.238a34.482,34.482,0,0,1-13.606,7.6,511.012,511.012,0,0,1-30-70.271q-3.092,2.538-6.183,5.071C2.279,41.976,1.1,26.337.059,11.215A8.773,8.773,0,0,1,.194,8.26,4.855,4.855,0,0,1,.44,7.6,9.248,9.248,0,0,1,1.858,5.484,46.122,46.122,0,0,1,8,0c1.179.04,1.664,1.541,2.136,2.641,6.489,15.21,11.231,31.115,17.124,46.575a333.268,333.268,0,0,0,30.464,60.593c.274.433.5.794.711,1.144A19.251,19.251,0,0,1,59.394,112.732Z" transform="translate(66.551 80.851) rotate(21)" fill="#ff8bac" stroke="#000" stroke-miterlimit="10" stroke-width="1"/><path d="M20.79,12.983C28.609,22.319,35.563,33.284,42.973,43a39.137,39.137,0,0,1-6.628,4.364c-.322.159,27.068,60.732,29.32,66.606a2.226,2.226,0,0,1,.175,1.668,2.158,2.158,0,0,1-.774.8,34.09,34.09,0,0,1-9.606,4.746c-1.406.437-3.765,1.418-5.246,1.191-2.029-.314-1.612-1.521-1.8-3.225-.806-7.482-5.453-15.508-8.387-22.442Q26.85,65.56,13.669,34.415q-3.33-7.875-6.664-15.754L0,2.713,8.232.143A3.217,3.217,0,0,1,11.747,1.3Z" transform="translate(90.076 78.884) rotate(21)" fill="#ff8bac" stroke="#000" stroke-miterlimit="10" stroke-width="1"/><path d="M42.331,15.019Q38.412,10.259,34.5,5.5c-1.509-1.835-3.1-3.733-5.278-4.69a14.274,14.274,0,0,0-6.4-.766C18.234.246,13.54.8,9.489,2.95,6.241,4.674,2.444,8.28,2.154,12.211c-.143,1.926,1.052,3.622,2.661,5.032A6.724,6.724,0,0,0,3.06,18.954a13.742,13.742,0,0,0-1.89,4.46C-.03,27.858-.53,32.62.756,37.04A4.241,4.241,0,0,0,1.94,39.188a3.21,3.21,0,0,0,3.8-.1A7.677,7.677,0,0,0,8.1,35.8c.87-1.958,2.978-9.809,2.53-14.9a13.674,13.674,0,0,0,5.933,1.68,19.224,19.224,0,0,0,5.21-1.033c7.073-2.005,14.388-2.986,21.675-3.959A3.5,3.5,0,0,0,42.331,15.019Z" transform="translate(70.749 10.939) rotate(21)" fill="#071b3f"/><path d="M0,17.8A27.59,27.59,0,0,0,1.553,5.877a13.675,13.675,0,0,0,5.933,1.68A19.227,19.227,0,0,0,12.7,6.525c7.073-2.006,14.388-2.986,21.675-3.959A3.439,3.439,0,0,0,33.267,0" transform="translate(72.32 25.502) rotate(21)" fill="none" stroke="#000" stroke-linecap="round" stroke-linejoin="round" stroke-miterlimit="10" stroke-width="1"/><ellipse cx="6.159" cy="7.629" rx="6.159" ry="7.629" transform="matrix(0.978, -0.208, 0.208, 0.978, 54.829, 47.96)" fill="#ffcddd"/><circle cx="3.177" cy="3.177" r="3.177" transform="translate(96.021 128.32) rotate(21)" fill="#081d3f" stroke="#000" stroke-miterlimit="10" stroke-width="1"/><circle cx="3.177" cy="3.177" r="3.177" transform="translate(96.972 143.573) rotate(21)" fill="#081d3f" stroke="#000" stroke-miterlimit="10" stroke-width="1"/><circle cx="3.177" cy="3.177" r="3.177" transform="translate(98.209 158.086) rotate(21)" fill="#081d3f" stroke="#000" stroke-miterlimit="10" stroke-width="1"/><circle cx="3.177" cy="3.177" r="3.177" transform="translate(66.2 131.761) rotate(21)" fill="#081d3f" stroke="#000" stroke-miterlimit="10" stroke-width="1"/><circle cx="3.177" cy="3.177" r="3.177" transform="translate(67.151 147.014) rotate(21)" fill="#081d3f" stroke="#000" stroke-miterlimit="10" stroke-width="1"/><circle cx="3.177" cy="3.177" r="3.177" transform="translate(68.386 161.526) rotate(21)" fill="#081d3f" stroke="#000" stroke-miterlimit="10" stroke-width="1"/><ellipse cx="1.656" cy="2.756" rx="1.656" ry="2.756" transform="translate(89.038 47.787) rotate(2)"/><ellipse cx="1.656" cy="2.756" rx="1.656" ry="2.756" transform="translate(74.173 48.158) rotate(2)"/><path d="M5.858,0C6.028,1.652,1.545,4.928,0,.083" transform="translate(79.404 62.317) rotate(21)" fill="none" stroke="#000" stroke-linecap="round" stroke-linejoin="round" stroke-miterlimit="10" stroke-width="1"/><circle cx="2.994" cy="2.994" r="2.994" transform="translate(93.393 55.29) rotate(21)" fill="#ff8964"/><circle cx="2.994" cy="2.994" r="2.994" transform="translate(70.504 55.556) rotate(21)" fill="#ff8964"/><path d="M0,0A1.729,1.729,0,0,1,1.112,1.525" transform="translate(86.125 55.496) rotate(21)" fill="none" stroke="#000" stroke-linecap="round" stroke-linejoin="round" stroke-miterlimit="10" stroke-width="1"/><path d="M4,57.46Q2.46,28.7,0,0" transform="translate(49.583 106.623) rotate(21)" fill="none" stroke="#000" stroke-linecap="round" stroke-linejoin="round" stroke-miterlimit="10" stroke-width="1"/></g></g><g fill="none" stroke="#ff4379" stroke-width="2"><circle cx="58.5" cy="58.5" r="58.5" stroke="none"/><circle cx="58.5" cy="58.5" r="57.5" fill="none"/></g></svg>